<svg width="26" height="27" viewBox="0 0 26 27" fill="none" xmlns="http://www.w3.org/2000/svg">
<g clip-path="url(#clip0_435_355)">
<path d="M15.356 26.7781C15.3042 26.788 15.2525 26.797 15.2007 26.8063C15.2525 26.797 15.3042 26.788 15.356 26.7781Z" fill="white"/>
<path d="M14.4794 26.9124C14.3527 26.9272 14.2251 26.9404 14.0972 26.9515C14.2251 26.9404 14.3527 26.9272 14.4794 26.9124Z" fill="white"/>
<path d="M14.7292 26.8806C14.6683 26.8887 14.607 26.8963 14.5459 26.9034C14.607 26.8963 14.6683 26.8887 14.7292 26.8806Z" fill="white"/>
<path d="M15.71 26.7053C15.6644 26.7154 15.6186 26.7255 15.5728 26.7352C15.6186 26.7255 15.6644 26.7154 15.71 26.7053Z" fill="white"/>
<path d="M16.5882 26.4785C16.5513 26.4894 16.5144 26.4997 16.4775 26.5104C16.5144 26.4997 16.5513 26.4894 16.5882 26.4785Z" fill="white"/>
<path d="M16.3228 26.554C16.2827 26.5649 16.2424 26.576 16.2021 26.5865C16.2424 26.576 16.2827 26.5651 16.3228 26.554Z" fill="white"/>
<path d="M15.9753 26.6443C15.9329 26.6546 15.89 26.6643 15.8472 26.6742C15.89 26.6643 15.9329 26.6546 15.9753 26.6443Z" fill="white"/>
<path d="M14.0932 26.9519C14.0248 26.9577 13.9563 26.9628 13.8877 26.9674C13.9563 26.9628 14.0248 26.9577 14.0932 26.9519Z" fill="white"/>
<path d="M26 13.5C26 6.0453 20.1786 0 13 0C5.8214 0 0 6.0453 0 13.5C0 20.9547 5.8214 27 13 27C13.0764 27 13.1523 26.9984 13.2285 26.9969V16.4877H10.4355V13.1076H13.2285V10.6202C13.2285 7.73547 14.9243 6.16539 17.4023 6.16539C18.5889 6.16539 19.6089 6.25726 19.9062 6.29826V9.31318H18.1975C16.8495 9.31318 16.5884 9.97854 16.5884 10.9547V13.1076H19.8118L19.3917 16.4877H16.5884V26.4784C22.0222 24.8608 26 19.6621 26 13.5Z" fill="white"/>
<path d="M13.8591 26.97C13.7238 26.9787 13.5879 26.9856 13.4517 26.9902C13.5879 26.9856 13.7238 26.9787 13.8591 26.97Z" fill="white"/>
<path d="M13.4443 26.9912C13.3725 26.9936 13.3005 26.9954 13.2285 26.9966C13.3005 26.9954 13.3725 26.9936 13.4443 26.9912Z" fill="white"/>
</g>
<defs>
<clipPath id="clip0_435_355">
<rect width="26" height="27" fill="white"/>
</clipPath>
</defs>
</svg>
