<svg width="26" height="27" viewBox="0 0 26 27" fill="none" xmlns="http://www.w3.org/2000/svg">
<g clip-path="url(#clip0_435_371)">
<path d="M15.4883 13.5C15.4883 14.9271 14.3743 16.084 13 16.084C11.6257 16.084 10.5117 14.9271 10.5117 13.5C10.5117 12.0729 11.6257 10.916 13 10.916C14.3743 10.916 15.4883 12.0729 15.4883 13.5Z" fill="white"/>
<path d="M18.819 8.92806C18.6994 8.59147 18.5086 8.2868 18.2606 8.03673C18.0198 7.77924 17.7266 7.58107 17.4023 7.45686C17.1393 7.35077 16.7441 7.22449 16.0163 7.19009C15.229 7.15281 14.993 7.14478 12.9998 7.14478C11.0065 7.14478 10.7704 7.1526 9.98329 7.18989C9.25549 7.22449 8.86015 7.35077 8.59732 7.45686C8.27299 7.58107 7.97961 7.77924 7.739 8.03673C7.49104 8.2868 7.30022 8.59126 7.1804 8.92806C7.07825 9.20121 6.95665 9.61175 6.92352 10.3675C6.88762 11.1849 6.87988 11.4301 6.87988 13.5001C6.87988 15.5699 6.88762 15.815 6.92352 16.6326C6.95665 17.3884 7.07825 17.7988 7.1804 18.0719C7.30022 18.4087 7.49084 18.7132 7.7388 18.9632C7.97961 19.2207 8.2728 19.4189 8.59712 19.5431C8.86015 19.6494 9.25549 19.7757 9.98329 19.8101C10.7704 19.8474 11.0063 19.8552 12.9996 19.8552C14.9932 19.8552 15.2292 19.8474 16.0161 19.8101C16.7439 19.7757 17.1393 19.6494 17.4023 19.5431C18.0533 19.2823 18.5679 18.748 18.819 18.0719C18.9212 17.7988 19.0428 17.3884 19.0761 16.6326C19.112 15.815 19.1195 15.5699 19.1195 13.5001C19.1195 11.4301 19.112 11.1849 19.0761 10.3675C19.043 9.61175 18.9214 9.20121 18.819 8.92806ZM12.9998 17.4805C10.8827 17.4805 9.16643 15.6985 9.16643 13.4999C9.16643 11.3013 10.8827 9.51926 12.9998 9.51926C15.1168 9.51926 16.833 11.3013 16.833 13.4999C16.833 15.6985 15.1168 17.4805 12.9998 17.4805ZM16.9846 10.2922C16.4898 10.2922 16.0887 9.87563 16.0887 9.36188C16.0887 8.84814 16.4898 8.43162 16.9846 8.43162C17.4793 8.43162 17.8804 8.84814 17.8804 9.36188C17.8802 9.87563 17.4793 10.2922 16.9846 10.2922Z" fill="white"/>
<path d="M13 0C5.8214 0 0 6.0453 0 13.5C0 20.9547 5.8214 27 13 27C20.1786 27 26 20.9547 26 13.5C26 6.0453 20.1786 0 13 0ZM20.4198 16.696C20.3837 17.5212 20.2574 18.0846 20.0729 18.5777C19.6851 19.619 18.8924 20.4422 17.8897 20.8449C17.415 21.0365 16.8723 21.1675 16.0778 21.2052C15.2818 21.2429 15.0275 21.252 13.0002 21.252C10.9727 21.252 10.7186 21.2429 9.92238 21.2052C9.12793 21.1675 8.58521 21.0365 8.11052 20.8449C7.61223 20.6502 7.16115 20.3452 6.78822 19.9507C6.40855 19.5636 6.11478 19.095 5.92732 18.5777C5.74284 18.0848 5.61649 17.5212 5.58038 16.6962C5.54369 15.8693 5.53516 15.6053 5.53516 13.5C5.53516 11.3947 5.54369 11.1307 5.58018 10.304C5.61629 9.4788 5.74245 8.91541 5.92693 8.42226C6.11438 7.90501 6.40836 7.43637 6.78822 7.04931C7.16095 6.65483 7.61223 6.34975 8.11032 6.15509C8.58521 5.96352 9.12773 5.8325 9.92238 5.79481C10.7184 5.75711 10.9727 5.74805 13 5.74805C15.0273 5.74805 15.2816 5.75711 16.0776 5.79501C16.8723 5.8325 17.4148 5.96352 17.8897 6.15488C18.3878 6.34955 18.8391 6.65483 19.212 7.04931C19.5916 7.43658 19.8856 7.90501 20.0729 8.42226C20.2576 8.91541 20.3837 9.4788 20.42 10.304C20.4563 11.1307 20.4648 11.3947 20.4648 13.5C20.4648 15.6053 20.4563 15.8693 20.4198 16.696Z" fill="white"/>
</g>
<defs>
<clipPath id="clip0_435_371">
<rect width="26" height="27" fill="white"/>
</clipPath>
</defs>
</svg>
