<svg width="26" height="27" viewBox="0 0 26 27" fill="none" xmlns="http://www.w3.org/2000/svg">
<g clip-path="url(#clip0_435_423)">
<path d="M13 27C20.1797 27 26 20.9558 26 13.5C26 6.04416 20.1797 0 13 0C5.8203 0 0 6.04416 0 13.5C0 20.9558 5.8203 27 13 27Z" fill="white"/>
<path d="M20.1002 10.2905C19.8972 9.7863 19.4116 9.43119 18.8546 9.42898C17.9826 9.42565 17.1793 9.11594 16.5387 8.59804C15.6454 7.87563 15.0696 6.74864 15.0696 5.48434C15.0696 5.29681 15.0333 5.11815 14.9683 4.95499C14.7919 4.5135 14.4024 4.18718 13.9328 4.1152C13.8151 4.096 13.6925 4.09268 13.5666 4.10818C13.5005 4.1163 13.4365 4.12959 13.374 4.14768C12.7985 4.31232 12.3922 4.87267 12.3922 5.50944V18.0484C12.3922 19.1783 11.5259 20.12 10.4382 20.1326C10.0614 20.137 9.70839 20.0307 9.40695 19.8439C8.8286 19.4855 8.44043 18.8295 8.44043 18.0805C8.44043 17.182 9.01807 16.374 9.84524 16.1152C10.5501 15.8948 10.9497 15.1226 10.7371 14.3906C10.7243 14.3459 10.7094 14.3027 10.6923 14.2607C10.4343 13.6106 9.73825 13.2573 9.07601 13.4644C8.14041 13.7571 7.30009 14.3659 6.7093 15.1787C6.09754 16.0204 5.77441 17.024 5.77441 18.0805C5.77441 19.5837 6.44056 20.9284 7.48209 21.8129C8.28225 22.4925 9.30422 22.9011 10.4161 22.9011C11.5391 22.9011 12.5699 22.4847 13.3736 21.793C14.3974 20.9118 15.0521 19.584 15.0578 18.0997C15.0578 18.0964 15.0582 18.0934 15.0582 18.0901V10.9044C16.1189 11.7106 17.4235 12.1901 18.8336 12.1975C19.5257 12.2012 20.125 11.6667 20.1944 10.9513C20.2171 10.7158 20.1809 10.4917 20.1002 10.2905Z" fill="#111219"/>
</g>
<defs>
<clipPath id="clip0_435_423">
<rect width="26" height="27" fill="white"/>
</clipPath>
</defs>
</svg>
