<svg width="26" height="27" viewBox="0 0 26 27" fill="none" xmlns="http://www.w3.org/2000/svg">
<g clip-path="url(#clip0_435_368)">
<path d="M11.3809 16.0293L15.6096 13.5001L11.3809 10.9709V16.0293Z" fill="white"/>
<path d="M13 0C5.8214 0 0 6.0453 0 13.5C0 20.9547 5.8214 27 13 27C20.1786 27 26 20.9547 26 13.5C26 6.0453 20.1786 0 13 0ZM21.123 13.5138C21.123 13.5138 21.123 16.2517 20.7886 17.5719C20.6011 18.2945 20.0524 18.8643 19.3566 19.0587C18.0853 19.4062 13 19.4062 13 19.4062C13 19.4062 7.92802 19.4062 6.64342 19.0449C5.94756 18.8505 5.39888 18.2805 5.21143 17.5579C4.87679 16.2517 4.87679 13.5 4.87679 13.5C4.87679 13.5 4.87679 10.7623 5.21143 9.44213C5.39868 8.71951 5.96085 8.13572 6.64342 7.94126C7.91473 7.59375 13 7.59375 13 7.59375C13 7.59375 18.0853 7.59375 19.3566 7.95506C20.0524 8.14952 20.6011 8.71951 20.7886 9.44213C21.1365 10.7623 21.123 13.5138 21.123 13.5138Z" fill="white"/>
</g>
<defs>
<clipPath id="clip0_435_368">
<rect width="26" height="27" fill="white"/>
</clipPath>
</defs>
</svg>
