<svg width="1437" height="783" viewBox="0 0 1437 783" fill="none" xmlns="http://www.w3.org/2000/svg">
<g clip-path="url(#clip0_472_828)">
<path d="M79.7248 347.723C77.4747 347.21 75.65 345.379 75.26 342.959C74.7483 339.778 76.9122 336.781 80.0953 336.268C80.857 336.147 81.6077 336.177 82.3167 336.339C84.5682 336.852 86.3935 338.683 86.7842 341.105C87.2928 344.285 85.1303 347.28 81.9479 347.793C81.185 347.916 80.4344 347.885 79.7248 347.723ZM114.111 348.691C101.531 345.823 96.8164 334.26 95.4622 329.902C88.9267 308.849 98.4643 289.368 108.598 278.904C114.8 272.501 119.731 267.568 136.667 259.569C109.299 281.495 101.589 300.824 106.001 325.607C107.206 332.367 113.222 339.306 121.141 341.111C123.44 341.635 125.898 341.728 128.447 341.257C130.919 340.797 139.553 340.403 144.478 328.06C143.178 329.33 141.503 330.235 139.576 330.548C138.387 330.738 137.216 330.69 136.109 330.438C132.596 329.637 129.747 326.777 129.139 323C128.341 318.036 131.719 313.359 136.683 312.562C137.874 312.369 139.046 312.416 140.152 312.668C143.666 313.469 146.512 316.33 147.119 320.105C147.241 320.863 147.233 321.61 147.172 322.344L147.443 322.127C147.861 331.618 143.494 338.05 140.076 341.255C135.755 345.302 130.144 348.349 124.212 349.082C120.384 349.555 117.034 349.357 114.111 348.691ZM75.3608 320.571C73.1086 320.058 71.2831 318.227 70.895 315.805C70.3843 312.623 72.5452 309.629 75.7284 309.116C76.4907 308.992 77.242 309.024 77.9511 309.185C80.2018 309.698 82.0267 311.528 82.4162 313.948C82.9284 317.133 80.7634 320.129 77.5821 320.643C76.8204 320.764 76.0698 320.733 75.3608 320.571Z" fill="white" fill-opacity="0.2"/>
<path d="M1301.77 601.745L1301.23 600.555L1335.88 584.944L1335.85 584.98L1336.15 584.835C1337.04 584.507 1338.01 584.409 1338.99 584.481C1339.42 584.513 1339.85 584.579 1340.28 584.677C1341.8 585.023 1343.28 585.765 1344.59 586.755C1346.26 588.024 1347.67 589.778 1348.5 591.773C1349.32 593.71 1349.68 596.048 1348.68 597.72C1347.66 599.382 1345.63 599.847 1343.73 599.758C1343.21 599.734 1342.68 599.66 1342.16 599.542C1340.74 599.218 1339.35 598.552 1338.12 597.616C1336.44 596.341 1335 594.632 1334.12 592.63C1333.68 591.636 1333.38 590.577 1333.33 589.515C1333.28 588.766 1333.38 588.024 1333.65 587.376L1301.77 601.745Z" fill="white" fill-opacity="0.2"/>
<path d="M976.623 150.894C976.05 150.763 975.5 150.557 974.995 150.263C972.619 148.847 971.922 145.977 972.004 143.292C972.088 140.538 973.149 137.7 974.915 135.294C976.683 132.895 979.084 130.798 981.897 129.515C983.295 128.879 984.794 128.43 986.294 128.33C987.032 128.266 987.772 128.315 988.466 128.474C988.746 128.538 989.019 128.617 989.284 128.72L989.198 128.648L963.19 73.1183L964.879 72.3271L965.69 74.05C967.036 74.7957 968.397 75.2779 969.768 75.5905C972.187 76.1419 974.644 76.1717 977.104 76.2023C979.561 76.2322 982.029 76.261 984.471 76.8177C988.825 77.8102 993.107 80.4751 997.148 87.7833C998.765 90.7117 1010.6 119.309 1012.28 124.534C1004.1 112.501 998.037 108.625 993.266 107.538C990.974 107.015 988.978 107.136 987.191 107.305C985.402 107.473 983.823 107.685 982.358 107.351C981.911 107.25 981.472 107.097 981.043 106.872L992.377 131.1C992.619 131.453 992.834 131.822 992.98 132.227C993.467 133.476 993.626 134.861 993.541 136.246C993.375 139.038 992.191 141.83 990.441 144.23C988.673 146.625 986.215 148.663 983.416 149.886C981.263 150.832 978.762 151.382 976.623 150.894ZM993.692 99.6327C996.004 100.16 998.301 101.154 1000.58 103.091C996.401 98.1118 992.754 96.0514 989.531 95.3168C986.995 94.7388 984.721 94.9825 982.657 95.2774C980.594 95.569 978.744 95.9093 977.049 95.523C976.495 95.3967 975.955 95.193 975.433 94.8842L976.526 97.2156C977.623 97.7324 978.724 98.0889 979.825 98.3399C982.134 98.8661 984.451 98.9271 986.764 98.9874C989.08 99.0484 991.393 99.1088 993.692 99.6327ZM969.92 83.1007L971.104 85.6354C972.24 86.1929 973.389 86.5741 974.543 86.8372C976.959 87.3878 979.408 87.4195 981.861 87.4552C984.317 87.4884 986.776 87.5224 989.212 88.0776C990.987 88.4822 992.744 89.1637 994.482 90.3181C990.627 86.318 987.266 84.5756 984.27 83.8926C981.764 83.3215 979.515 83.4899 977.442 83.6986C975.366 83.9066 973.47 84.1557 971.672 83.7458C971.078 83.6104 970.497 83.4042 969.92 83.1007Z" fill="white" fill-opacity="0.2"/>
<path d="M1309.04 186.324C1324.22 159.397 1310.87 157.194 1311 150.214L1294.21 171.293C1294 171.67 1293.77 172.028 1293.47 172.341C1292.56 173.342 1291.38 174.106 1290.09 174.648C1287.5 175.749 1284.45 175.933 1281.5 175.425C1281.22 175.376 1280.94 175.32 1280.67 175.257C1278 174.649 1275.39 173.411 1273.25 171.614C1270.95 169.684 1268.97 166.957 1269.15 164.182C1269.36 161.4 1271.64 159.49 1274.1 158.362C1276.62 157.199 1279.66 156.887 1282.62 157.404C1282.93 157.46 1283.24 157.521 1283.55 157.592C1286.19 158.194 1288.79 159.363 1290.96 161.119C1292.15 162.098 1293.23 163.253 1293.99 164.561C1294.54 165.458 1294.88 166.452 1294.98 167.433L1295 167.326L1333.46 118.979L1334.93 120.153L1333.74 121.655C1333.2 133.521 1347.1 139.328 1335.43 156.204C1333.51 158.979 1313.01 182.466 1309.04 186.324ZM1319.3 139.779L1317.69 141.812C1317.88 150.716 1325.68 156.032 1323.15 166.159C1330.58 149.158 1318.8 146.487 1319.3 139.779ZM1327.47 129.526L1325.71 131.731C1325.75 140.273 1333.12 145.747 1331.95 154.933C1337.5 139.4 1327.29 136.521 1327.47 129.526Z" fill="white" fill-opacity="0.2"/>
<path d="M471.314 749.781C467.701 748.957 465.507 745.62 464.37 742.155C463.157 738.515 463.182 734.293 464.344 730.302C465.501 726.321 467.644 722.434 470.709 719.411C472.237 717.912 473.977 716.606 475.89 715.757C477.226 715.131 478.676 714.808 480.058 714.842L431.123 666.211L432.936 664.388L434.712 666.155C452.987 669.099 456.191 658.028 465.77 660.211C471.088 661.424 478.371 666.721 491.28 680.76C484.602 674.796 479.168 671.924 474.563 670.875C468.161 669.415 463.36 671.477 459.049 673.652C454.739 675.822 450.919 678.108 446.472 677.094C446.125 677.015 445.776 676.915 445.421 676.795L486.102 717.227L486.017 717.198L486.493 717.65C487.733 719.06 488.595 720.791 489.153 722.639C490.265 726.368 490.055 730.583 488.91 734.564C487.748 738.537 485.513 742.382 482.429 745.317C479.429 748.193 475.393 750.503 471.596 749.838C471.502 749.82 471.408 749.802 471.314 749.781Z" fill="white" fill-opacity="0.2"/>
<path d="M1140.11 679.197C1138.17 678.755 1136.28 677.981 1134.61 676.883C1132.17 675.285 1129.96 672.897 1129.81 670.2C1129.7 667.502 1131.67 665.406 1133.92 664.036C1136.21 662.637 1139.1 661.987 1142 662.146C1143.03 662.206 1144.08 662.353 1145.11 662.588C1146.98 663.013 1148.8 663.731 1150.44 664.768C1151.71 665.581 1152.87 666.562 1153.76 667.733C1154.35 668.504 1154.79 669.379 1155 670.27L1186.43 619.48L1188.11 620.426L1186.49 623.045C1187.27 633.59 1197.65 637.087 1195.47 646.89L1178.26 674.701C1185.5 657.556 1172.16 652.857 1173.98 643.231L1154.52 674.669L1154.52 674.651L1154.14 675.278C1153.37 676.346 1152.33 677.211 1151.16 677.884C1148.78 679.236 1145.88 679.764 1142.98 679.606C1142.03 679.55 1141.06 679.415 1140.11 679.197ZM1181.24 631.515L1178.73 635.581C1179.47 643.346 1186.66 647.164 1187.57 654.91C1191.16 639.709 1180.7 638.246 1181.24 631.515Z" fill="white" fill-opacity="0.2"/>
<path d="M594.975 138.944L591.925 126.735L591.952 126.727L581.454 84.6458C581.164 84.088 580.947 83.4838 580.871 82.8485C580.665 81.4742 580.817 80.0343 581.214 78.6499C582.02 75.8525 583.85 73.2886 586.17 71.2543C588.514 69.2253 591.463 67.7134 594.583 67.1115C596.379 66.7624 598.325 66.6793 600.053 67.0732C601.251 67.3462 602.341 67.8474 603.207 68.6489C605.299 70.6214 605.347 73.6907 604.652 76.3976C603.946 79.1721 602.222 81.8094 599.886 83.8507C597.545 85.8838 594.637 87.4613 591.496 88.1251C589.927 88.4487 588.31 88.5648 586.764 88.3281C586.55 88.2969 586.337 88.259 586.127 88.2111C585.343 88.0324 584.602 87.7265 583.953 87.3257L584.161 87.5838L593.832 126.253L648.903 112.472L638.164 69.4189C637.874 68.8578 637.663 68.2585 637.581 67.6182C637.368 66.2424 637.521 64.8025 637.925 63.4163C638.726 60.6248 640.56 58.0617 642.881 56.024C645.225 53.995 648.173 52.4865 651.29 51.8805C653.09 51.5321 655.035 51.4489 656.76 51.8421C657.958 52.1151 659.051 52.6171 659.918 53.4186C662.008 55.3945 662.061 58.4579 661.36 61.1633C660.654 63.9378 658.932 66.5825 656.596 68.6205C654.259 70.651 651.348 72.231 648.206 72.8948C646.637 73.2184 645.017 73.3338 643.475 73.0945C643.26 73.0667 643.045 73.028 642.834 72.98C642.05 72.8013 641.308 72.4988 640.667 72.0962L640.871 72.3535L650.787 111.999L650.791 111.996L653.84 124.208L594.975 138.944Z" fill="white" fill-opacity="0.2"/>
<path d="M139.101 678.954C137.863 678.672 136.652 678.274 135.494 677.749C132.4 676.353 129.405 674.005 128.75 670.918C128.13 667.833 130.023 665.057 132.357 663.07C134.743 661.041 137.958 659.762 141.333 659.417C143.593 659.187 145.952 659.304 148.235 659.825C149.366 660.082 150.474 660.441 151.541 660.902C153.147 661.601 154.671 662.521 155.902 663.711C156.723 664.481 157.373 665.401 157.785 666.381L157.759 666.02L178.462 612.641L179.217 612.897L246.269 621.124L241.483 633.453L241.363 633.44L238.528 640.75L238.933 640.804L237.889 643.494L237.475 643.446L223.301 679.927C223.214 680.617 223.022 681.293 222.691 681.913C222.004 683.28 220.959 684.475 219.725 685.457C217.237 687.454 213.985 688.587 210.615 688.946C208.472 689.153 206.242 689.024 204.083 688.531C202.845 688.249 201.63 687.85 200.476 687.324C197.375 685.931 194.384 683.579 193.727 680.49C193.11 677.407 194.995 674.631 197.331 672.652C199.724 670.607 202.93 669.339 206.308 668.993C208.571 668.764 210.931 668.881 213.217 669.402C214.344 669.659 215.45 670.012 216.518 670.471C218.129 671.178 219.643 672.095 220.874 673.285C221.699 674.056 222.348 674.981 222.757 675.958L222.735 675.591L235.304 643.179L171.902 635.398L158.325 670.356C158.235 671.044 158.048 671.725 157.709 672.336C157.03 673.712 155.982 674.891 154.752 675.882C152.266 677.875 149.006 679.011 145.638 679.36C143.497 679.578 141.263 679.447 139.101 678.954ZM239.185 633.172L175.794 625.393L173.037 632.497L236.355 640.476L239.185 633.172Z" fill="white" fill-opacity="0.2"/>
<path d="M1140.82 260.304C1140.66 260.269 1140.51 260.23 1140.35 260.189C1138.76 259.734 1137.15 258.812 1136.61 257.369C1136.09 255.924 1136.81 254.451 1137.8 253.334C1138.81 252.181 1140.26 251.337 1141.87 250.93C1143.37 250.556 1145.01 250.489 1146.58 250.845C1146.68 250.869 1146.79 250.893 1146.9 250.921C1147.72 251.147 1148.52 251.484 1149.2 251.969C1149.65 252.278 1150.02 252.681 1150.3 253.125L1150.25 252.951L1156.45 225.736L1156.84 225.806L1189.76 225.02L1188.32 231.305L1188.27 231.306L1182.85 255.005C1182.85 255.347 1182.81 255.688 1182.69 256.005C1182.46 256.714 1182.05 257.364 1181.52 257.929C1180.46 259.067 1178.97 259.845 1177.37 260.256C1175.92 260.616 1174.33 260.654 1172.83 260.312C1172.67 260.276 1172.52 260.238 1172.37 260.196C1170.78 259.742 1169.16 258.82 1168.63 257.378C1168.11 255.932 1168.83 254.46 1169.81 253.339C1170.82 252.189 1172.28 251.345 1173.88 250.938C1175.38 250.564 1177.03 250.493 1178.59 250.85C1178.7 250.874 1178.81 250.902 1178.91 250.93C1179.73 251.155 1180.53 251.489 1181.21 251.98C1181.66 252.29 1182.04 252.693 1182.31 253.13L1182.27 252.956L1187.2 231.333L1156.07 232.075L1150.84 255.004C1150.84 255.339 1150.8 255.68 1150.68 256.001C1150.45 256.707 1150.03 257.355 1149.5 257.92C1148.45 259.06 1146.95 259.836 1145.36 260.247C1143.9 260.612 1142.31 260.646 1140.82 260.304Z" fill="white" fill-opacity="0.2"/>
<path d="M474.577 95.9505L473.029 95.5977L476.524 80.2668L478.163 80.2192L474.577 95.9505ZM477.011 78.1305L480.813 61.4478L482.453 61.4002L478.65 78.0829L477.011 78.1305ZM481.3 59.315L485.474 41L487.022 41.3529L482.94 59.264L481.3 59.315Z" fill="white" fill-opacity="0.2"/>
<path d="M492.855 97.9855L491.303 97.6318L495.387 79.7175L497.03 79.6706L492.855 97.9855ZM495.873 77.5846L499.676 60.9018L501.319 60.855L497.516 77.5376L495.873 77.5846ZM500.163 58.7656L503.748 43.0376L505.299 43.3912L501.806 58.7154L500.163 58.7656Z" fill="white" fill-opacity="0.2"/>
<path d="M474.804 61.6196L474.746 59.5031L481.299 59.3149L482.94 59.264L500.163 58.7657L501.806 58.7155L507.812 58.5429L507.876 60.6643L501.319 60.855L499.676 60.9019L482.453 61.4002L480.813 61.4478L474.804 61.6196Z" fill="white" fill-opacity="0.2"/>
<path d="M470.514 80.4418L470.457 78.3186L477.011 78.1305L478.65 78.0829L495.873 77.5847L497.516 77.5377L503.523 77.3619L503.587 79.48L497.03 79.6707L495.387 79.7176L478.163 80.2192L476.524 80.2668L470.514 80.4418Z" fill="white" fill-opacity="0.2"/>
<path d="M631.457 828.061L629.208 826.614L679.272 748.663L681.522 750.11L652.039 796.017C655.073 794.746 660.76 793.093 667.543 794.639C668.134 794.773 668.736 794.932 669.346 795.12C671.094 795.782 672.828 796.704 674.38 798.135C675.154 798.849 675.866 799.696 676.447 800.692C676.761 801.206 676.971 801.64 677.255 802.334C677.338 802.525 677.688 803.623 677.743 804.18C678.199 806.875 677.362 809.623 676.182 811.629C674.968 813.677 673.451 815.252 671.808 816.577C670.14 817.875 668.339 818.908 666.218 819.59C664.126 820.191 662.324 820.307 660.657 820.443C657.287 820.634 654.086 820.677 650.878 820.956C645.077 821.355 639.305 822.395 633.605 824.719L631.457 828.061ZM660.387 797.811C658.058 797.28 655.091 797.008 651.326 797.129L635.357 821.99C646.825 813.224 665.499 817.449 668.252 806.662C668.774 804.08 668.03 799.553 660.387 797.811Z" fill="white" fill-opacity="0.2"/>
<path d="M1383.04 546.476L1381.06 546.019L1385.21 527.99L1368.72 532.051L1376.8 495.972L1378.79 496.418L1374.73 514.561L1391.33 510.469L1383.04 546.476ZM1388.64 513.063L1374.27 516.606L1371.38 529.46L1385.68 525.939L1388.64 513.063Z" fill="white" fill-opacity="0.2"/>
<path d="M1430.35 78.814C1427.37 76.4954 1423.8 72.9785 1424.8 67.5643C1425.92 61.4883 1429.45 61.6509 1433.37 59.9883C1429.72 58.6888 1427.76 53.0244 1427.67 49.0177C1427.57 44.82 1429.83 41.8793 1432.57 38.9475C1436.57 34.6764 1439.66 30.0936 1438.87 23.6624L1438.96 23.2619C1445.34 26.4193 1448.67 35.9291 1446.74 39.8845C1444.5 44.4692 1440.67 46.1074 1438.89 48.9177C1433.61 57.2818 1442.67 65.3491 1443.11 65.6953C1439.43 65.5401 1435.54 64.7495 1432.98 68.3885C1430.66 71.6761 1430.6 75.0374 1430.35 78.814Z" fill="white" fill-opacity="0.2"/>
<path d="M169.917 486.865C191.867 461.393 178.1 456.183 179.731 448.767L157.321 467.662C157.01 468.012 156.681 468.344 156.294 468.611C155.112 469.486 153.692 470.047 152.2 470.357C150.094 470.79 147.842 470.691 145.64 470.189C144.706 469.976 143.778 469.691 142.875 469.341C139.837 468.149 136.983 466.134 134.896 463.511C132.848 460.963 131.315 457.633 132.106 454.705C132.923 451.78 135.765 450.23 138.631 449.56C140.791 449.044 143.152 449.077 145.464 449.604C146.295 449.794 147.119 450.045 147.921 450.361C150.966 451.553 153.858 453.491 156.017 456.108C157.088 457.415 157.985 458.866 158.521 460.428C158.908 461.499 159.063 462.637 158.957 463.702L159.007 463.59L210.373 420.259L211.69 421.823L210.096 423.167C206.975 435.717 220.566 444.887 204.5 460.386C201.862 462.937 174.968 483.598 169.917 486.865ZM190.824 439.41L188.66 441.237C186.969 450.778 194.141 458.116 189.283 468.375C200.843 451.827 188.845 446.459 190.824 439.41ZM201.724 430.223L199.378 432.202C197.591 441.321 204.271 448.735 201.066 458.286C210.304 442.902 200.032 437.646 201.724 430.223Z" fill="white" fill-opacity="0.2"/>
<path d="M993.406 749.797C993.209 749.752 993.015 749.697 992.818 749.635C989.734 748.584 988.24 745.438 987.685 742.316C987.111 739.12 987.648 735.58 989.101 732.379C990.562 729.173 992.821 726.173 995.757 724.008C997.222 722.941 998.839 722.053 1000.54 721.574C1001.66 721.239 1002.83 721.138 1003.92 721.287L1003.58 721.118L974.695 684.842L974.691 684.845L965.798 673.678L1019.66 630.747L1028.56 641.919L1028.53 641.937L1059.17 680.449C1059.73 680.89 1060.24 681.409 1060.61 682.025C1061.48 683.353 1062 684.911 1062.24 686.532C1062.72 689.795 1062.04 693.305 1060.6 696.498C1059.13 699.693 1056.8 702.641 1053.86 704.738C1051.17 706.656 1047.78 708.046 1044.81 707.369C1044.61 707.324 1044.42 707.27 1044.23 707.209C1041.14 706.157 1039.65 703.011 1039.09 699.886C1038.51 696.696 1039.05 693.153 1040.51 689.949C1041.97 686.749 1044.23 683.749 1047.16 681.585C1048.63 680.513 1050.25 679.63 1051.96 679.149C1053.08 678.814 1054.24 678.718 1055.33 678.857L1054.99 678.689L1026.81 643.311L976.419 683.469L1007.76 722.875C1008.33 723.314 1008.83 723.835 1009.21 724.452C1010.08 725.78 1010.59 727.334 1010.83 728.955C1011.31 732.221 1010.63 735.727 1009.19 738.921C1007.72 742.119 1005.4 745.068 1002.45 747.161C999.764 749.08 996.376 750.474 993.406 749.797Z" fill="white" fill-opacity="0.2"/>
<path d="M745.425 686.526L743.265 680.173L743.318 680.139L742.04 676.372L741.86 676.482L741.386 675.096L741.563 674.982L735.186 656.168C734.994 655.871 734.847 655.546 734.776 655.197C734.596 654.443 734.615 653.639 734.773 652.854C735.088 651.269 735.986 649.763 737.177 648.525C738.385 647.294 739.95 646.323 741.653 645.844C742.767 645.529 744 645.399 745.074 645.644C745.602 645.765 746.087 645.974 746.504 646.3C747.751 647.297 747.919 648.993 747.664 650.526C747.394 652.097 746.562 653.638 745.36 654.877C744.156 656.109 742.62 657.122 740.907 657.63C740.05 657.881 739.161 658.022 738.295 657.958C738.055 657.946 737.82 657.913 737.594 657.861C737.273 657.788 736.969 657.677 736.693 657.533L736.816 657.67L742.499 674.373L769.691 656.716L763.577 638.689C763.388 638.393 763.241 638.068 763.17 637.718C762.991 636.965 763.009 636.161 763.164 635.371C763.479 633.789 764.381 632.281 765.575 631.047C766.779 629.815 768.345 628.842 770.047 628.366C771.161 628.051 772.394 627.921 773.469 628.166C773.996 628.286 774.485 628.496 774.899 628.819C776.146 629.816 776.316 631.519 776.055 633.047C775.788 634.618 774.956 636.16 773.754 637.399C772.553 638.632 771.011 639.639 769.3 640.155C768.447 640.403 767.555 640.544 766.688 640.483C766.449 640.471 766.215 640.435 765.988 640.383C765.667 640.31 765.362 640.202 765.086 640.058L765.214 640.189L774.565 667.7L774.187 667.85L745.425 686.526ZM770.2 658.212L742.971 675.766L744.25 679.534L771.443 661.873L770.2 658.212Z" fill="white" fill-opacity="0.2"/>
<path d="M-433.236 173.747L-429.194 144.299C-25.1322 -156.993 208.326 -12.1141 455.492 141.272C731.136 312.323 1016.16 489.206 1567.22 66.2801L1569.3 68.9945C1321.83 258.925 1105.2 344.136 907.019 329.5C731.417 316.541 588.706 235.593 452.167 150.855C206.023 -1.89098 -31.0398 -126.144 -433.236 173.747Z" fill="white" fill-opacity="0.2"/>
<path d="M-409.707 431.121L-407.507 408.62C-43.1502 60.3197 206.223 175.651 470.239 297.755C764.67 433.919 1069.13 574.728 1564.57 87.7794L1566.96 90.2223C1344.48 308.901 1139.83 419.89 941.339 429.526C765.464 438.071 612.367 378.331 466.519 310.871C203.598 189.281 -47.0309 84.4356 -409.707 431.121Z" fill="white" fill-opacity="0.2"/>
<path d="M-349.564 685.018L-354.319 661.3C-35.1002 271.183 226.469 355.249 503.4 444.253C812.229 543.505 1131.58 646.139 1564.02 102.43L1566.7 104.561C1372.5 348.731 1182.89 483.836 987.055 517.603C813.523 547.526 653.813 503.357 500.831 454.184C225.049 365.558 -31.8153 296.708 -349.564 685.018Z" fill="white" fill-opacity="0.2"/>
<path d="M-269.558 924.685L-270.461 898.727C-1.13687 472.609 268.728 524.162 554.444 578.735C873.069 639.587 1202.55 702.525 1565.54 110.154L1568.46 111.947C1405.45 377.966 1233.71 535.178 1043.44 592.567C874.844 643.422 710.875 615.583 553.039 585.437C268.511 531.086 -1.47472 500.541 -269.558 924.685Z" fill="white" fill-opacity="0.2"/>
<path d="M-135.134 1112.67L-154.91 1107.4C60.5016 651.638 334.642 669.899 624.882 689.231C948.556 710.781 1283.25 733.073 1571.39 100.883L1574.5 102.303C1445.11 386.209 1293.8 563.184 1111.93 643.342C950.784 714.368 783.469 709.997 623.133 699.321C334.096 680.069 79.2888 659.014 -135.134 1112.67Z" fill="white" fill-opacity="0.2"/>
<path d="M234.061 198.848L239.336 175.394L265.558 168.923L260.16 192.416L234.061 198.848ZM240.169 171.651L247.589 138.538L243.966 137.719L229.199 203.575L259.296 196.162L251.722 229.064L255.344 229.897L270.463 164.188L240.169 171.651Z" fill="white" fill-opacity="0.2"/>
<path d="M532.137 616.916L531.483 613.902L455.688 630.484C456.541 629.127 457.1 627.463 457.307 625.723C457.637 623.242 457.437 620.64 456.919 618.124C455.862 613.062 453.425 608.356 450.317 604.561C447.201 600.754 443.182 597.924 438.976 596.73C434.876 595.532 430.243 595.547 427.296 598.85C424.383 602.193 424.183 607.751 425.126 612.654C426.092 617.667 428.425 622.447 431.528 626.245C434.645 630.031 438.546 633.027 442.78 634.375C444.879 635.054 447.06 635.34 449.136 635.041L449.858 634.875L449.782 634.932L532.137 616.916Z" fill="white" fill-opacity="0.2"/>
<path d="M1235.42 212.171L1232.9 212.334L1237.31 280.117C1236.31 279.196 1235.03 278.492 1233.64 278.08C1231.67 277.463 1229.53 277.285 1227.43 277.395C1223.2 277.629 1219.1 279.105 1215.64 281.284C1212.18 283.474 1209.41 286.568 1207.94 290.042C1206.48 293.432 1205.94 297.441 1208.27 300.43C1210.63 303.394 1215.12 304.323 1219.21 304.156C1223.39 303.995 1227.54 302.621 1230.99 300.444C1234.43 298.257 1237.33 295.284 1238.93 291.805C1239.73 290.079 1240.22 288.235 1240.22 286.393L1240.17 285.749L1240.21 285.824L1235.42 212.171Z" fill="white" fill-opacity="0.2"/>
<path d="M1362.74 298.388L1360.38 297.478L1336.46 359.861C1335.95 358.623 1335.07 357.46 1333.98 356.513C1332.44 355.137 1330.57 354.085 1328.61 353.307C1324.67 351.758 1320.33 351.359 1316.3 351.865C1312.25 352.378 1308.46 353.99 1305.7 356.475C1302.97 358.89 1300.83 362.248 1301.71 365.889C1302.63 369.524 1306.33 372.224 1310.11 373.781C1313.98 375.38 1318.32 375.883 1322.35 375.379C1326.38 374.862 1330.24 373.422 1333.13 370.98C1334.56 369.767 1335.77 368.327 1336.53 366.685L1336.75 366.085L1336.75 366.17L1362.74 298.388Z" fill="white" fill-opacity="0.2"/>
<path d="M1052.2 555.011C1050.99 558.02 1049.15 560.693 1047.04 563.089C1044.92 565.459 1042.57 567.672 1039.77 569.223C1038.37 569.984 1036.84 570.521 1035.27 570.593C1033.71 570.657 1032.13 570.181 1030.98 569.079C1029.83 567.992 1029.18 566.386 1029.13 564.74C1029.04 563.093 1029.47 561.446 1030.09 559.929C1031.41 556.901 1033.4 554.33 1035.49 551.94C1037.61 549.564 1040.03 547.451 1042.8 545.984C1045.5 544.515 1048.96 543.905 1051.53 545.899C1053.78 548.361 1053.38 552.089 1052.2 555.011ZM1034.06 474.439L1031.9 475.041L1051.03 544.031C1049.95 543.256 1048.67 542.749 1047.36 542.565C1045.5 542.263 1043.6 542.444 1041.79 542.921C1038.14 543.884 1034.9 546.104 1032.38 548.937C1029.86 551.777 1028.13 555.438 1027.62 559.267C1027.12 563.002 1027.55 567.217 1030.25 569.899C1032.98 572.546 1037.11 572.731 1040.64 571.867C1044.25 570.982 1047.57 568.858 1050.1 566.028C1052.59 563.187 1054.46 559.636 1055.08 555.78C1055.38 553.867 1055.39 551.885 1054.98 549.989L1054.79 549.338L1054.85 549.408L1034.06 474.439Z" fill="white" fill-opacity="0.2"/>
<path d="M1331.8 197.93C1334.62 196.357 1337.71 195.432 1340.83 194.887C1343.95 194.379 1347.15 194.13 1350.28 194.671C1351.83 194.951 1353.35 195.488 1354.61 196.41C1355.86 197.334 1356.79 198.687 1357 200.259C1357.21 201.82 1356.71 203.465 1355.73 204.772C1354.78 206.104 1353.41 207.116 1351.99 207.898C1349.08 209.419 1345.94 210.175 1342.84 210.724C1339.72 211.245 1336.53 211.375 1333.47 210.783C1330.46 210.234 1327.4 208.558 1326.65 205.409C1326.44 202.103 1329.08 199.46 1331.8 197.93ZM1295.69 271.644L1297.74 272.524L1325.88 207.164C1326.23 208.437 1326.91 209.631 1327.8 210.591C1329.05 211.978 1330.64 213.022 1332.34 213.784C1335.76 215.306 1339.66 215.61 1343.37 214.989C1347.1 214.364 1350.71 212.6 1353.48 209.948C1356.19 207.371 1358.5 203.837 1358.07 200.078C1357.6 196.326 1354.53 193.613 1351.25 192.083C1347.91 190.517 1344.02 190.09 1340.3 190.706C1336.6 191.355 1332.94 192.944 1330.06 195.55C1328.63 196.836 1327.39 198.369 1326.53 200.093L1326.27 200.708L1326.27 200.627L1295.69 271.644Z" fill="white" fill-opacity="0.2"/>
<path d="M1437.13 211.216L1437.51 205.779C1439.69 212.801 1448.38 208.531 1451.49 225.69C1447.78 218.443 1440.71 218.577 1437.13 211.216ZM1438.3 194.436L1438.55 190.931L1436.87 190.911L1432.13 258.892C1431.62 258.119 1430.95 257.477 1430.18 257.039C1429.04 256.351 1427.76 256.006 1426.46 255.893C1423.86 255.679 1421.21 256.476 1418.89 257.899C1416.57 259.33 1414.58 261.565 1413.34 264.218C1412.13 266.812 1411.41 269.993 1412.54 272.621C1413.69 275.24 1416.35 276.411 1418.85 276.673C1421.43 276.944 1424.1 276.231 1426.41 274.811C1428.72 273.375 1430.78 271.255 1432.09 268.602C1432.75 267.291 1433.23 265.851 1433.4 264.364L1433.45 263.529L1433.46 263.544L1436.41 221.466C1438.71 232.083 1450.9 229.469 1451.92 250.564L1454.52 213.343C1452.41 202.356 1442.99 204.553 1438.3 194.436Z" fill="white" fill-opacity="0.2"/>
<path d="M1338.65 500.078L1328.88 451.297L1328.98 451.244L1326.39 438.311L1265.6 467.421L1264.83 467.617L1276.08 523.6L1276.29 523.895C1275.42 523.293 1274.38 522.866 1273.28 522.663C1271.6 522.323 1269.83 522.369 1268.1 522.638C1264.64 523.212 1261.38 524.782 1258.72 526.884C1256.07 528.982 1254.05 531.782 1253.13 534.778C1252.24 537.692 1252.14 541.051 1254.32 543.307C1256.53 545.545 1260.31 545.922 1263.66 545.426C1267.1 544.925 1270.4 543.433 1273.05 541.331C1275.7 539.227 1277.83 536.519 1278.84 533.511C1279.35 532.018 1279.59 530.457 1279.43 528.943C1279.38 528.24 1279.17 527.571 1278.88 526.943L1269.43 479.765L1326.9 452.24L1335.85 496.738L1336.06 497.03C1335.2 496.432 1334.15 496.004 1333.04 495.804C1331.38 495.456 1329.6 495.503 1327.87 495.777C1324.4 496.339 1321.15 497.92 1318.49 500.012C1315.83 502.124 1313.82 504.916 1312.9 507.91C1312.01 510.831 1311.91 514.18 1314.09 516.446C1316.29 518.689 1320.08 519.05 1323.43 518.561C1326.87 518.057 1330.17 516.564 1332.82 514.469C1335.46 512.363 1337.59 509.658 1338.61 506.649C1339.12 505.152 1339.36 503.593 1339.2 502.074C1339.14 501.377 1338.95 500.707 1338.65 500.078Z" fill="white" fill-opacity="0.2"/>
</g>
<defs>
<clipPath id="clip0_472_828">
<rect width="1437" height="783" fill="white"/>
</clipPath>
</defs>
</svg>
