<svg width="696" height="300" viewBox="0 0 696 300" fill="none" xmlns="http://www.w3.org/2000/svg">
<path d="M10.2 210.3V183.3L113.7 48H155.4L53.4 183.3L33.9 177.3H200.4V210.3H10.2ZM125.4 258V210.3L126.6 177.3V135H163.2V258H125.4Z" fill="white"/>
<path d="M502.2 210.3V183.3L605.7 48H647.4L545.4 183.3L525.9 177.3H692.4V210.3H502.2ZM617.4 258V210.3L618.6 177.3V135H655.2V258H617.4Z" fill="white"/>
<path fill-rule="evenodd" clip-rule="evenodd" d="M353.176 196.661C333.968 202.154 294.781 189.96 301.503 154.232C305.591 132.543 323.509 120.378 342.174 107.706L342.358 107.581C342.894 114.87 343.499 123.203 344.127 132.151C345.73 131.665 347.37 131.292 349.032 131.035L348.778 127.416L348.776 127.395C348.204 119.252 347.656 111.458 347.161 104.309C357.598 97.141 367.907 89.536 375.809 79.7492C399.118 50.8821 399.327 16.3299 383.314 3.34643C374.394 -3.89174 363.163 1.44641 354.478 11.3888C345.419 21.3614 335.233 38.4614 339.801 83.0667L339.39 83.3974C316.38 101.926 289.083 123.908 286.439 152.824C282.885 191.654 322.442 217.284 353.176 196.661ZM344.631 65.9717C344.522 60.3482 344.895 54.7257 345.746 49.1578H345.805C346.941 41.9096 349.251 33.7467 353.771 26.3578C365.49 7.19675 375.922 9.60442 378.736 18.1897C381.55 26.7749 382.757 43.3221 360.381 65.4739C356.119 69.6914 350.924 74.0642 345.29 78.6485C345.07 74.6221 344.636 66.3385 344.631 65.9667V65.9717Z" fill="white"/>
<path d="M339.114 256.33C310.524 254.293 283.809 242.205 264.318 222.486C244.827 202.768 233.999 176.875 234 149.99C234 98.9507 272.732 54.9183 326.12 45.2776L327.133 50.2137C276.265 59.3972 239.361 101.358 239.361 149.99C239.361 202.863 283.351 247.373 339.511 251.319L339.114 256.33Z" fill="white"/>
<path d="M370.952 254.41L369.879 249.489C419.853 239.768 456.124 197.922 456.124 149.989C456.107 131.883 450.94 114.108 441.155 98.4982C431.37 82.8882 417.321 70.0082 400.457 61.1861L403.068 56.7979C423.33 67.3807 439.658 83.5171 449.864 103.045C460.071 122.573 463.668 144.559 460.174 166.058C456.68 187.557 446.262 207.541 430.315 223.332C414.369 239.123 393.656 249.966 370.952 254.41Z" fill="white"/>
<path d="M350.522 235.828C352.082 234.697 353.867 233.36 355.733 231.932L358.944 276.165C359.448 282.544 355.497 290.531 346.55 295.648C335.828 301.775 323.654 301.388 319.349 294.768C315.044 288.149 320.25 277.819 330.971 271.692C338.691 267.279 347.15 266.263 352.897 268.5L350.522 235.828Z" fill="white"/>
<path d="M408.96 171.935C409.003 172.066 409.04 172.201 409.072 172.337C409.323 173.284 409.317 174.274 409.057 175.219C408.796 176.163 408.289 177.032 407.58 177.746C406.872 178.46 405.985 178.998 404.999 179.31C404.014 179.622 402.961 179.7 401.935 179.535C400.91 179.37 399.945 178.968 399.127 178.365C398.309 177.762 397.663 176.979 397.25 176.084C396.836 175.189 396.666 174.211 396.757 173.239C396.847 172.267 397.194 171.332 397.767 170.517C398.432 169.616 399.35 168.904 400.419 168.461C401.489 168.019 402.668 167.862 403.827 168.009C404.985 168.155 406.078 168.6 406.984 169.293C407.89 169.986 408.574 170.9 408.96 171.935Z" fill="#A68448"/>
<path d="M400.635 154.971C401.433 154.786 402.184 154.456 402.847 153.998C403.509 153.541 404.069 152.966 404.494 152.306C404.919 151.646 405.201 150.914 405.325 150.152C405.448 149.389 405.41 148.612 405.213 147.863C405.181 147.726 405.142 147.59 405.095 147.456C404.709 146.422 404.026 145.507 403.12 144.814C402.214 144.122 401.121 143.678 399.963 143.531C398.805 143.385 397.626 143.542 396.557 143.986C395.488 144.429 394.571 145.142 393.907 146.044C393.212 147.029 392.851 148.188 392.871 149.369C392.89 150.551 393.29 151.698 394.017 152.663C394.744 153.628 395.765 154.364 396.945 154.776C398.126 155.188 399.412 155.256 400.635 154.971Z" fill="#A68448"/>
<path d="M369.692 141.358C375.452 143.078 380.506 146.422 384.166 150.934C388.58 156.242 391.089 162.724 391.333 169.451C391.869 192.241 362.642 217.711 337.725 233.222C337.691 233.244 338.095 232.811 338.821 232.034C342.265 228.344 352.941 216.907 358.289 209.563C366.545 199.107 377.444 179.866 371.638 160.931C368.754 151.833 364.181 144.374 353.459 144.424L353.25 144.449C335.635 146.209 333.522 158.74 333.914 159.609C334.576 161.031 336.167 160.456 338.325 159.676C341.791 158.424 346.718 156.643 351.604 161.761C358.311 169.17 351.599 178.197 345.059 179.112C336.916 180.243 328.934 174.774 326.87 164.128C326.093 159.841 327.202 146.068 348.109 140.584H348.249C355.344 139.065 362.742 139.332 369.692 141.358Z" fill="white"/>
</svg>
