<svg width="1281" height="425" viewBox="0 0 1281 425" fill="none" xmlns="http://www.w3.org/2000/svg">
<g clip-path="url(#clip0_369_486)">
<rect width="1280" height="426" transform="translate(1 -1)" fill="#E2E2E2"/>
<g clip-path="url(#clip1_369_486)">
<path d="M1367.27 -322.481C1346.36 -406.288 1281.41 -471.409 1197.59 -492.13C1147.27 -504.71 1096.2 -511 1045.5 -511C994.802 -511 943.734 -504.71 893.406 -492.13C809.588 -471.224 744.458 -406.288 723.734 -322.48C698.755 -221.653 698.755 -119.345 723.734 -18.518C744.642 65.289 809.588 130.41 893.406 151.13C943.734 163.71 994.802 170 1045.5 170C1096.2 170 1147.27 163.71 1197.59 151.129C1281.41 130.224 1346.54 65.288 1367.27 -18.519C1392.24 -119.346 1392.24 -221.654 1367.27 -322.481Z" stroke="white"/>
</g>
<g clip-path="url(#clip2_369_486)">
<path d="M1444.27 -395.481C1423.36 -479.288 1358.41 -544.409 1274.59 -565.13C1224.27 -577.71 1173.2 -584 1122.5 -584C1071.8 -584 1020.73 -577.71 970.406 -565.13C886.588 -544.224 821.458 -479.288 800.734 -395.48C775.755 -294.653 775.755 -192.345 800.734 -91.518C821.642 -7.71101 886.588 57.41 970.406 78.13C1020.73 90.71 1071.8 97 1122.5 97C1173.2 97 1224.27 90.71 1274.59 78.129C1358.41 57.224 1423.54 -7.71201 1444.27 -91.519C1469.24 -192.346 1469.24 -294.654 1444.27 -395.481Z" stroke="white"/>
</g>
</g>
<defs>
<clipPath id="clip0_369_486">
<rect width="1281" height="425" fill="white"/>
</clipPath>
<clipPath id="clip1_369_486">
<rect width="681" height="681" fill="white" transform="translate(705 -511)"/>
</clipPath>
<clipPath id="clip2_369_486">
<rect width="681" height="681" fill="white" transform="translate(782 -584)"/>
</clipPath>
</defs>
</svg>
