<svg width="37" height="48" viewBox="0 0 37 48" fill="none" xmlns="http://www.w3.org/2000/svg">
<path fill-rule="evenodd" clip-rule="evenodd" d="M19.0681 31.4657C15.9948 32.3447 9.72489 30.3937 10.8005 24.6771C11.4544 21.207 14.3215 19.2605 17.3078 17.2329L17.3372 17.213C17.423 18.3791 17.5199 19.7126 17.6203 21.1441C17.8767 21.0664 18.1391 21.0067 18.405 20.9655L18.3644 20.3866L18.3641 20.3832C18.2726 19.0803 18.1849 17.8333 18.1057 16.6894C19.7757 15.5426 21.4251 14.3258 22.6894 12.7599C26.4188 8.14114 26.4523 2.61278 23.8902 0.535429C22.4629 -0.622679 20.666 0.231426 19.2765 1.82221C17.8269 3.41783 16.1973 6.15383 16.928 13.2907L16.8623 13.3436C13.1808 16.3082 8.81317 19.8254 8.39026 24.4519C7.82155 30.6647 14.1507 34.7655 19.0681 31.4657ZM17.7009 10.5555C17.6835 9.65571 17.7432 8.75611 17.8793 7.86526H17.8887C18.0705 6.70554 18.4402 5.39948 19.1633 4.21725C21.0383 1.15148 22.7074 1.53671 23.1578 2.91035C23.608 4.28399 23.801 6.93154 20.2209 10.4758C19.539 11.1506 18.7078 11.8503 17.8064 12.5838C17.7712 11.9395 17.7017 10.6142 17.7009 10.5547V10.5555Z" fill="#A68448"/>
<path d="M16.8183 41.0128C12.2438 40.6868 7.96944 38.7528 4.85092 35.5978C1.73237 32.4429 -0.000222472 28.2999 2.14263e-08 23.9983C2.14263e-08 15.8321 6.19708 8.7869 14.7392 7.24438L14.9013 8.03416C6.76235 9.50353 0.857729 16.2173 0.857729 23.9983C0.857729 32.4582 7.89621 39.5797 16.8818 40.211L16.8183 41.0128Z" fill="#A68448"/>
<path d="M21.9124 40.7056L21.7408 39.9182C29.7366 38.3628 35.54 31.6675 35.54 23.9983C35.5373 21.1012 34.7105 18.2573 33.1449 15.7597C31.5793 13.2621 29.3315 11.2013 26.6333 9.78976L27.0511 9.08765C30.293 10.7809 32.9054 13.3627 34.5385 16.4872C36.1715 19.6116 36.7471 23.1295 36.188 26.5693C35.629 30.0091 33.962 33.2065 31.4106 35.7331C28.8591 38.2596 25.5451 39.9946 21.9124 40.7056Z" fill="#A68448"/>
<path d="M18.6436 37.7324C18.8932 37.5515 19.1788 37.3375 19.4773 37.1091L19.9911 44.1864C20.0717 45.207 19.4395 46.485 18.008 47.3037C16.2925 48.284 14.3446 48.2222 13.6559 47.163C12.9671 46.1038 13.8 44.4511 15.5154 43.4707C16.7506 42.7646 18.1041 42.6021 19.0235 42.96L18.6436 37.7324Z" fill="#A68448"/>
<path d="M27.9936 27.5096C28.0004 27.5305 28.0065 27.5522 28.0116 27.5739C28.0516 27.7254 28.0507 27.8839 28.009 28.035C27.9674 28.1861 27.8862 28.3251 27.7728 28.4394C27.6595 28.5536 27.5176 28.6396 27.3599 28.6896C27.2022 28.7396 27.0337 28.7519 26.8696 28.7255C26.7056 28.6991 26.5511 28.6348 26.4203 28.5384C26.2894 28.442 26.1862 28.3166 26.12 28.1734C26.0537 28.0302 26.0266 27.8738 26.0411 27.7183C26.0555 27.5628 26.1111 27.4131 26.2027 27.2828C26.3091 27.1385 26.4559 27.0247 26.6271 26.9538C26.7982 26.883 26.9869 26.8579 27.1723 26.8814C27.3577 26.9048 27.5325 26.9759 27.6775 27.0868C27.8224 27.1977 27.9318 27.344 27.9936 27.5096Z" fill="#A68448"/>
<path d="M26.6615 24.7954C26.7892 24.7658 26.9095 24.7129 27.0155 24.6398C27.1214 24.5666 27.211 24.4746 27.2789 24.369C27.347 24.2634 27.3922 24.1463 27.4119 24.0243C27.4317 23.9023 27.4256 23.7779 27.394 23.6582C27.3889 23.6362 27.3826 23.6144 27.3752 23.593C27.3135 23.4275 27.2041 23.2812 27.0591 23.1703C26.9142 23.0595 26.7394 22.9885 26.5541 22.965C26.3687 22.9417 26.1801 22.9668 26.009 23.0378C25.838 23.1087 25.6913 23.2227 25.585 23.367C25.4739 23.5247 25.4162 23.7102 25.4193 23.8991C25.4225 24.0881 25.4863 24.2718 25.6027 24.4261C25.719 24.5805 25.8823 24.6983 26.0713 24.7642C26.2602 24.8301 26.4659 24.8409 26.6615 24.7954Z" fill="#A68448"/>
<path d="M21.7107 22.6174C22.6323 22.8926 23.441 23.4276 24.0266 24.1494C24.7328 24.9988 25.1342 26.0359 25.1734 27.1123C25.2591 30.7587 20.5828 34.8338 16.5961 37.3156C16.5905 37.3191 16.6553 37.2498 16.7714 37.1254C17.3224 36.5351 19.0305 34.7051 19.8863 33.5301C21.2072 31.8572 22.951 28.7786 22.022 25.7491C21.5606 24.2934 20.8289 23.0999 19.1135 23.1079L19.08 23.1119C16.2616 23.3934 15.9236 25.3984 15.9862 25.5375C16.0922 25.765 16.3468 25.673 16.6919 25.5482C17.2465 25.3478 18.0349 25.0629 18.8167 25.8818C19.8898 27.0672 18.8159 28.5116 17.7694 28.658C16.4665 28.839 15.1894 27.9639 14.8592 26.2606C14.7348 25.5746 14.9124 23.3709 18.2575 22.4935H18.2798C19.4151 22.2505 20.5987 22.2932 21.7107 22.6174Z" fill="#A68448"/>
</svg>
