<svg width="72" height="15" viewBox="0 0 72 15" fill="none" xmlns="http://www.w3.org/2000/svg">
<g clip-path="url(#clip0_435_409)">
<path fill-rule="evenodd" clip-rule="evenodd" d="M60.477 11.7711L60.3224 11.6294C59.947 11.2868 59.8807 10.6607 60.223 10.2591L64.2422 5.34491C64.5624 4.94327 65.1476 4.8724 65.523 5.23859L65.6776 5.38035C66.053 5.72292 66.1193 6.34901 65.777 6.75064L61.7578 11.6648C61.4376 12.0664 60.8745 12.1137 60.477 11.7711Z" fill="url(#paint0_linear_435_409)"/>
<path opacity="0.4" fill-rule="evenodd" clip-rule="evenodd" d="M65.6122 7.41071L65.9184 7.10714C65.9388 7.07143 65.9796 7.03571 66 7C65.6735 7.32143 65.3265 7.66071 65 8C65.2449 7.76786 65.449 7.57143 65.6122 7.41071Z" fill="url(#paint1_radial_435_409)"/>
<path fill-rule="evenodd" clip-rule="evenodd" d="M65.7735 5.54037L61.7567 0.363358C61.4367 -0.0597617 60.8519 -0.13443 60.4767 0.251356L60.3222 0.400692C59.947 0.761589 59.8808 1.42117 60.2229 1.84429L63.6106 6.17505L63.6879 6.27461C64.692 7.40708 64.35 8.52709 64.0962 9C64.2948 8.73866 64.4934 8.47732 64.681 8.24087C64.8576 8.00442 65.0452 7.76797 65.2217 7.54397C65.3983 7.31996 65.5638 7.1084 65.6742 6.97151C66.0604 6.54839 66.1156 5.96349 65.7735 5.54037Z" fill="url(#paint2_linear_435_409)"/>
<path fill-rule="evenodd" clip-rule="evenodd" d="M66.477 11.7711L66.3224 11.6294C65.947 11.2868 65.8807 10.6607 66.223 10.2591L70.2422 5.34491C70.5624 4.94327 71.1476 4.8724 71.523 5.23859L71.6776 5.38035C72.053 5.72292 72.1193 6.34901 71.777 6.75064L67.7578 11.6648C67.4376 12.0664 66.8745 12.1137 66.477 11.7711Z" fill="url(#paint3_linear_435_409)"/>
<path opacity="0.4" fill-rule="evenodd" clip-rule="evenodd" d="M71.6122 7.41071L71.9184 7.10714C71.9388 7.07143 71.9796 7.03571 72 7C71.6735 7.32143 71.3265 7.66071 71 8C71.2449 7.76786 71.4694 7.57143 71.6122 7.41071Z" fill="url(#paint4_radial_435_409)"/>
<path fill-rule="evenodd" clip-rule="evenodd" d="M71.7735 5.54037L67.7567 0.363358C67.4367 -0.0597617 66.8519 -0.13443 66.4767 0.251356L66.3222 0.400692C65.947 0.761589 65.8808 1.42117 66.2229 1.84429L69.6106 6.17505L69.6879 6.27461C70.6921 7.40708 70.35 8.52709 70.0962 9C70.2948 8.73866 70.4934 8.47732 70.681 8.24087C70.8576 8.00442 71.0452 7.76797 71.2217 7.54397C71.3983 7.31996 71.5638 7.1084 71.6742 6.97151C72.0604 6.54839 72.1156 5.96349 71.7735 5.54037Z" fill="url(#paint5_linear_435_409)"/>
<path fill-rule="evenodd" clip-rule="evenodd" d="M0.266667 11.7232C0.0969697 11.5547 0 11.3019 0 10.989V1.08325C0 0.758275 0.0969697 0.505517 0.303031 0.300903C0.509091 0.0962893 0.763637 0 1.09091 0C1.41818 0 1.70909 0.0962893 1.90303 0.300903C2.10909 0.505517 2.20606 0.758275 2.20606 1.08325V10.2187H6.9697C7.64849 10.2187 8 10.5196 8 11.1093C8 11.6991 7.64849 12 6.9697 12H1.0303C0.703031 12 0.448485 11.9037 0.266667 11.7232Z" fill="white"/>
<path fill-rule="evenodd" clip-rule="evenodd" d="M9.27473 11.7018C9.08791 11.499 9 11.2366 9 10.9026V1.07356C9 0.751491 9.08791 0.500994 9.27473 0.298211C9.46154 0.0954274 9.69231 0 9.98901 0C10.2857 0 10.5495 0.0954274 10.7253 0.298211C10.9121 0.500994 11 0.751491 11 1.07356V10.9026C11 11.2247 10.9121 11.499 10.7253 11.7018C10.5385 11.9046 10.2967 12 9.98901 12C9.7033 12 9.46154 11.9046 9.27473 11.7018Z" fill="white"/>
<path fill-rule="evenodd" clip-rule="evenodd" d="M24.0053 14.1303C24.0053 13.9277 23.9351 13.7371 23.8181 13.5346L23.233 12.641C22.8936 12.081 22.484 11.6998 21.9809 11.533C22.9521 11.0921 23.7011 10.4011 24.216 9.44797C24.7426 8.50675 25 7.35107 25 6.02859C25 4.80143 24.7777 3.72915 24.333 2.82367C23.8883 1.9301 23.2564 1.22716 22.4255 0.726767C21.6064 0.250198 20.6234 0 19.5117 0C18.3766 0 17.4053 0.22637 16.5745 0.726767C15.7553 1.22716 15.1117 1.91819 14.667 2.82367C14.234 3.74106 14 4.80143 14 6.02859C14 7.24384 14.2223 8.31612 14.667 9.23352C15.1117 10.1271 15.7436 10.83 16.5745 11.3304C17.4053 11.807 18.3766 12.0572 19.5117 12.0572C19.9096 12.0572 20.2255 12.1287 20.4713 12.2478C20.717 12.367 20.916 12.5576 21.0681 12.8197L22.0277 14.44C22.1447 14.6187 22.2968 14.7617 22.4606 14.857C22.6362 14.9523 22.8234 15 23.0223 15C23.2798 15 23.5138 14.9047 23.7128 14.7498C23.9117 14.5949 24.0053 14.3805 24.0053 14.1303ZM22.8819 6.00476C22.8819 7.38681 22.5777 8.45909 21.9809 9.20969C21.384 9.96028 20.5532 10.3296 19.4883 10.3296C18.4234 10.3296 17.5809 9.96028 16.984 9.20969C16.3872 8.45909 16.083 7.41064 16.083 6.00476C16.083 4.59889 16.3872 3.55043 16.984 2.79984C17.5809 2.06116 18.4117 1.69182 19.4883 1.69182C20.5649 1.69182 21.384 2.04924 21.9809 2.79984C22.5777 3.55043 22.8819 4.59889 22.8819 6.00476Z" fill="white"/>
<path fill-rule="evenodd" clip-rule="evenodd" d="M27 10.8829C27 11.2192 27.0936 11.4835 27.2926 11.6877C27.4681 11.8919 27.7373 11.988 28.0533 12C28.381 12 28.6385 11.9039 28.8375 11.6997C29.0364 11.5075 29.13 11.2432 29.13 10.8949V7.26727H32.0676C33.3082 7.26727 34.2679 6.95496 34.9584 6.3063C35.6489 5.66967 36 4.76876 36 3.62762C36 2.48648 35.6489 1.58558 34.9584 0.960961C34.2679 0.312312 33.3082 0 32.0676 0H28.0299C27.7139 0 27.4681 0.0960962 27.2809 0.264264C27.0936 0.444445 27 0.696697 27 1.02102V10.8829ZM33.987 3.65165C33.987 4.94895 33.2497 5.60961 31.7984 5.60961L29.13 5.59759V1.69369H31.7984C33.2497 1.69369 33.987 2.35435 33.987 3.65165Z" fill="white"/>
<path fill-rule="evenodd" clip-rule="evenodd" d="M47.6816 11.7371C47.8898 11.5458 48 11.3307 48 11.0797C48 10.9243 47.9633 10.7928 47.9143 10.6375L43.151 0.681275C43.0408 0.454183 42.8816 0.286852 42.6735 0.16733C42.4653 0.059761 42.2449 0 42 0C41.7551 0 41.5347 0.0478088 41.3265 0.16733C41.1061 0.286852 40.9469 0.466135 40.849 0.681275L36.098 10.6375C36.0367 10.7809 36 10.9363 36 11.0797C36 11.3426 36.098 11.5697 36.3184 11.7371C36.5265 11.9044 36.7837 12 37.0408 12C37.2367 12 37.4082 11.9522 37.5673 11.8566C37.7265 11.761 37.849 11.6175 37.9469 11.4143L38.9878 9.16733H45.0122L46.0531 11.4143C46.1388 11.6056 46.2735 11.761 46.4327 11.8566C46.5918 11.9522 46.7755 12 46.9469 12C47.2286 12 47.4735 11.9044 47.6816 11.7371ZM44.2776 7.49402H39.7347L42 2.52191L44.2776 7.49402Z" fill="white"/>
<path fill-rule="evenodd" clip-rule="evenodd" d="M55.0454 0.011893C55.2899 0.011893 55.5111 0.107037 55.709 0.309217C55.9069 0.511397 56 0.725471 56 1.0109C56 1.22498 55.9185 1.45094 55.7555 1.65312L52.0419 6.27948V10.9058C52.0419 11.2507 51.9488 11.5124 51.7509 11.7146C51.553 11.9167 51.3085 12 51.0058 12C50.6915 12 50.4238 11.9049 50.2258 11.7146C50.0279 11.5243 49.9348 11.2626 49.9348 10.9058V6.27948L46.2445 1.64123C46.0815 1.43905 46 1.22498 46 0.999009C46 0.737364 46.0931 0.499504 46.291 0.297324C46.4889 0.0951437 46.7218 0 46.9546 0C47.234 0 47.4552 0.11893 47.6531 0.368682L50.9942 4.60258L54.3236 0.368682C54.5215 0.130823 54.766 0.011893 55.0454 0.011893Z" fill="white"/>
</g>
<defs>
<linearGradient id="paint0_linear_435_409" x1="61.7323" y1="13.3049" x2="67.4476" y2="10.7148" gradientUnits="userSpaceOnUse">
<stop stop-color="#FFE81D"/>
<stop offset="0.7072" stop-color="#E89D2C"/>
</linearGradient>
<radialGradient id="paint1_radial_435_409" cx="0" cy="0" r="1" gradientUnits="userSpaceOnUse" gradientTransform="translate(61.5188 8.33909) scale(4.9759 4.97589)">
<stop offset="0.4185" stop-color="#123F06" stop-opacity="0.01"/>
<stop offset="1" stop-color="#123F06"/>
</radialGradient>
<linearGradient id="paint2_linear_435_409" x1="59.1706" y1="4.47704" x2="65.6769" y2="8.92761" gradientUnits="userSpaceOnUse">
<stop offset="0.0937643" stop-color="#1FAEFF"/>
<stop offset="1" stop-color="#0D7CFF"/>
</linearGradient>
<linearGradient id="paint3_linear_435_409" x1="67.7323" y1="13.3049" x2="73.4476" y2="10.7148" gradientUnits="userSpaceOnUse">
<stop stop-color="#FFE81D"/>
<stop offset="0.7072" stop-color="#E89D2C"/>
</linearGradient>
<radialGradient id="paint4_radial_435_409" cx="0" cy="0" r="1" gradientUnits="userSpaceOnUse" gradientTransform="translate(67.5271 8.33909) scale(4.9759 4.97589)">
<stop offset="0.4185" stop-color="#123F06" stop-opacity="0.01"/>
<stop offset="1" stop-color="#123F06"/>
</radialGradient>
<linearGradient id="paint5_linear_435_409" x1="65.1706" y1="4.47704" x2="71.6769" y2="8.92761" gradientUnits="userSpaceOnUse">
<stop offset="0.0937643" stop-color="#1FAEFF"/>
<stop offset="1" stop-color="#0D7CFF"/>
</linearGradient>
<clipPath id="clip0_435_409">
<rect width="72" height="15" fill="white"/>
</clipPath>
</defs>
</svg>
