<svg width="165" height="48" viewBox="0 0 165 48" fill="none" xmlns="http://www.w3.org/2000/svg">
<g clip-path="url(#clip0_360_466)">
<path fill-rule="evenodd" clip-rule="evenodd" d="M19.0681 31.435C15.9948 32.3132 9.7249 30.364 10.8005 24.653C11.4544 21.1863 14.3215 19.2417 17.3078 17.2161L17.3372 17.1962C17.423 18.3612 17.5199 19.6933 17.6203 21.1235C17.8767 21.0458 18.1391 20.9862 18.405 20.9451L18.3644 20.3667L18.3642 20.3633C18.2726 19.0617 18.1849 17.8159 18.1057 16.6731C19.7757 15.5274 21.4251 14.3118 22.6894 12.7474C26.4188 8.13319 26.4523 2.61023 23.8902 0.534906C22.463 -0.622071 20.666 0.2312 19.2765 1.82043C17.8269 3.41449 16.1973 6.14782 16.9281 13.2777L16.8624 13.3306C13.1808 16.2923 8.81318 19.806 8.39026 24.4281C7.82156 30.6347 14.1508 34.7316 19.0681 31.435ZM17.7009 10.5452C17.6836 9.64629 17.7432 8.74757 17.8793 7.85758H17.8887C18.0705 6.699 18.4402 5.39421 19.1633 4.21313C21.0383 1.15036 22.7074 1.53521 23.1578 2.90751C23.608 4.27981 23.801 6.92478 20.2209 10.4656C19.539 11.1397 18.7078 11.8387 17.8064 12.5715C17.7712 11.9279 17.7017 10.6038 17.7009 10.5444V10.5452Z" fill="#A68448"/>
<path d="M16.8183 40.9728C12.2438 40.6471 7.96944 38.7149 4.85092 35.563C1.73237 32.4112 -0.000222472 28.2723 2.14263e-08 23.9749C2.14263e-08 15.8166 6.19708 8.77831 14.7392 7.2373L14.9013 8.02631C6.76235 9.49424 0.857729 16.2015 0.857729 23.9749C0.857729 32.4265 7.89621 39.541 16.8818 40.1717L16.8183 40.9728Z" fill="#A68448"/>
<path d="M21.9123 40.6659L21.7407 39.8793C29.7365 38.3255 35.5398 31.6367 35.5398 23.9749C35.5372 21.0807 34.7104 18.2396 33.1448 15.7444C31.5792 13.2492 29.3314 11.1905 26.6332 9.78029L27.051 9.07886C30.2928 10.7705 32.9053 13.3498 34.5383 16.4712C36.1714 19.5926 36.747 23.107 36.1879 26.5434C35.6289 29.9799 33.9619 33.1742 31.4104 35.6983C28.859 38.2224 25.5449 39.9557 21.9123 40.6659Z" fill="#A68448"/>
<path d="M18.6436 37.6957C18.8932 37.5149 19.1788 37.3012 19.4773 37.073L19.9911 44.1434C20.0717 45.163 19.4395 46.4397 18.008 47.2576C16.2926 48.237 14.3446 48.1752 13.6559 47.117C12.9671 46.0588 13.8 44.4078 15.5154 43.4283C16.7506 42.7229 18.1041 42.5606 19.0235 42.9181L18.6436 37.6957Z" fill="#A68448"/>
<path d="M27.9934 27.4828C28.0002 27.5037 28.0063 27.5254 28.0114 27.5471C28.0514 27.6985 28.0505 27.8568 28.0088 28.0077C27.9672 28.1587 27.886 28.2975 27.7726 28.4117C27.6593 28.5259 27.5174 28.6118 27.3597 28.6617C27.202 28.7116 27.0335 28.724 26.8694 28.6976C26.7054 28.6712 26.5509 28.607 26.4201 28.5107C26.2892 28.4143 26.186 28.289 26.1198 28.146C26.0535 28.0029 26.0264 27.8467 26.0409 27.6913C26.0553 27.536 26.1109 27.3865 26.2025 27.2563C26.3089 27.1121 26.4557 26.9984 26.6269 26.9276C26.798 26.8568 26.9867 26.8318 27.1721 26.8552C27.3575 26.8787 27.5323 26.9497 27.6773 27.0605C27.8222 27.1713 27.9316 27.3175 27.9934 27.4828Z" fill="#A68448"/>
<path d="M26.6617 24.7711C26.7895 24.7415 26.9097 24.6887 27.0157 24.6157C27.1216 24.5426 27.2112 24.4507 27.2792 24.3452C27.3472 24.2397 27.3924 24.1227 27.4121 24.0008C27.4319 23.879 27.4258 23.7547 27.3943 23.635C27.3891 23.613 27.3829 23.5913 27.3754 23.5699C27.3137 23.4046 27.2043 23.2584 27.0594 23.1477C26.9144 23.0369 26.7396 22.966 26.5543 22.9426C26.369 22.9192 26.1803 22.9443 26.0093 23.0152C25.8383 23.0861 25.6915 23.2 25.5853 23.3442C25.4742 23.5017 25.4164 23.687 25.4196 23.8758C25.4227 24.0645 25.4866 24.248 25.6029 24.4022C25.7193 24.5564 25.8826 24.6741 26.0715 24.7399C26.2604 24.8058 26.4662 24.8166 26.6617 24.7711Z" fill="#A68448"/>
<path d="M21.7105 22.5954C22.6321 22.8703 23.4407 23.4048 24.0263 24.1259C24.7326 24.9745 25.134 26.0105 25.1731 27.0859C25.2589 30.7287 20.5826 34.7998 16.5958 37.2793C16.5903 37.2828 16.655 37.2135 16.7712 37.0893C17.3221 36.4995 19.0303 34.6713 19.8861 33.4975C21.207 31.8262 22.9507 28.7506 22.0218 25.724C21.5603 24.2697 20.8287 23.0774 19.1133 23.0855L19.0798 23.0895C16.2613 23.3707 15.9234 25.3737 15.986 25.5127C16.0919 25.7399 16.3465 25.648 16.6917 25.5234C17.2463 25.3232 18.0346 25.0385 18.8165 25.8566C19.8895 27.0408 18.8156 28.4839 17.7692 28.6301C16.4663 28.8109 15.1892 27.9367 14.8589 26.235C14.7346 25.5497 14.9121 23.3482 18.2573 22.4716H18.2796C19.4149 22.2288 20.5985 22.2715 21.7105 22.5954Z" fill="#A68448"/>
<path d="M64.1023 23.8238L64.0819 14.0719L58.9181 22.1979H57.9782L52.809 14.1263V23.8238H50.8481V10.4353H52.5233L58.486 19.8419L64.3673 10.4353H66.0426L66.0631 23.8238H64.1023Z" fill="#111219"/>
<path d="M73.5166 23.0876C72.3851 22.5173 71.4421 21.6672 70.7899 20.6298C70.1408 19.5634 69.7993 18.357 69.7993 17.1295C69.7993 15.9019 70.1408 14.6955 70.7899 13.6291C71.4421 12.5918 72.3851 11.7416 73.5166 11.1714C74.674 10.5788 75.9742 10.2825 77.417 10.2825C78.8472 10.2825 80.1407 10.5788 81.2975 11.1714C82.4254 11.7372 83.3648 12.5831 84.0134 13.6162C84.668 14.6576 84.995 15.8286 84.995 17.1295C84.995 18.4303 84.668 19.6002 84.0146 20.6393C83.3667 21.6736 82.4266 22.5207 81.2981 23.0876C80.1407 23.6807 78.8472 23.977 77.4182 23.9765C75.9742 23.9765 74.674 23.6802 73.5166 23.0876ZM80.2431 21.6049C81.0723 21.1697 81.7588 20.5317 82.2309 19.759C82.706 18.9539 82.9554 18.049 82.9554 17.129C82.9554 16.2091 82.706 15.3042 82.2309 14.499C81.7606 13.7278 81.0759 13.0902 80.2497 12.654C79.3862 12.2014 78.41 11.9704 77.4206 11.9843C76.4252 11.972 75.443 12.2028 74.5717 12.654C73.737 13.0858 73.0445 13.7241 72.5706 14.499C72.0955 15.3042 71.8462 16.2091 71.8462 17.129C71.8462 18.049 72.0955 18.9539 72.5706 19.759C73.0445 20.5345 73.7364 21.173 74.5717 21.6049C75.443 22.0562 76.4252 22.287 77.4206 22.2746C78.4088 22.2879 79.3838 22.0569 80.2461 21.6049H80.2431Z" fill="#111219"/>
<path d="M98.2882 23.8238L95.2044 19.7116C94.8232 19.7375 94.5233 19.7496 94.3059 19.7496H90.7735V23.8238H88.7314V10.4353H94.3059C96.157 10.4353 97.6137 10.8495 98.6766 11.678C99.7389 12.5065 100.27 13.6479 100.269 15.1023C100.269 16.1345 99.9972 17.0142 99.4522 17.7414C98.9072 18.4686 98.1316 18.9979 97.1248 19.3293L100.514 23.8238H98.2882ZM97.2061 17.3401C97.8871 16.8171 98.2274 16.0712 98.2268 15.1023C98.2262 14.1335 97.8859 13.3908 97.2061 12.8741C96.5244 12.3563 95.5374 12.0974 94.2451 12.0974H90.7735V18.122H94.2451C95.5374 18.1231 96.5244 17.8625 97.2061 17.3401Z" fill="#111219"/>
<path d="M113.299 20.4762H105.701L104.129 23.8238H102.026L108.499 10.4353H110.519L117.015 23.8238H114.871L113.299 20.4762ZM112.583 18.9461L109.5 12.3874L106.416 18.9461H112.583Z" fill="#111219"/>
<path d="M131.414 10.4353L125.148 23.8238H123.12L116.832 10.4353H119.037L124.184 21.4333L129.37 10.4353H131.414Z" fill="#111219"/>
<path d="M134.894 23.5079C133.894 23.1955 133.107 22.7908 132.535 22.2937L133.291 20.8016C133.835 21.2618 134.533 21.6358 135.385 21.9235C136.226 22.2091 137.114 22.355 138.008 22.355C139.194 22.355 140.079 22.1671 140.664 21.7914C141.248 21.4157 141.541 20.9152 141.542 20.2898C141.55 20.0818 141.512 19.8744 141.429 19.6811C141.347 19.4879 141.222 19.313 141.062 19.1679C140.723 18.8705 140.318 18.6456 139.878 18.5086C139.407 18.355 138.744 18.1824 137.886 17.9908C137.002 17.803 136.132 17.5603 135.282 17.2642C134.628 17.0253 134.046 16.6402 133.588 16.1422C133.117 15.6394 132.883 14.9605 132.883 14.1056C132.874 13.42 133.084 12.7474 133.485 12.1742C133.887 11.5989 134.496 11.1386 135.314 10.7934C136.13 10.4482 137.144 10.2756 138.354 10.2756C139.194 10.2756 140.031 10.3783 140.842 10.5812C141.593 10.7574 142.304 11.0553 142.946 11.4614L142.271 12.9915C141.676 12.6358 141.03 12.3621 140.352 12.1785C139.702 11.9978 139.029 11.9043 138.351 11.9007C137.193 11.9007 136.325 12.0983 135.747 12.4935C135.168 12.8888 134.878 13.3988 134.878 14.0236C134.87 14.2325 134.91 14.4407 134.994 14.6342C135.079 14.8277 135.206 15.002 135.369 15.1455C135.72 15.4456 136.134 15.6737 136.584 15.8152C137.231 16.0172 137.889 16.1864 138.555 16.3218C139.436 16.5091 140.302 16.7519 141.148 17.0484C141.796 17.2872 142.374 17.6677 142.833 18.1582C143.302 18.6553 143.537 19.3247 143.537 20.1664C143.543 20.8501 143.33 21.5197 142.925 22.0883C142.516 22.6694 141.897 23.1296 141.067 23.4691C140.237 23.8085 139.215 23.9774 138.003 23.9757C136.947 23.9784 135.897 23.8204 134.894 23.5079Z" fill="#111219"/>
<path d="M151.793 17.8752L149.179 20.3614V23.8238H147.138V10.4353H149.179V17.914L156.94 10.4353H159.268L153.162 16.4642L159.656 23.8281H157.267L151.793 17.8752Z" fill="#111219"/>
<path d="M162.434 10.4353H164.476V23.8238H162.434V10.4353Z" fill="#111219"/>
<path d="M51.9097 37.4056C51.5873 37.2359 51.318 36.9813 51.131 36.6693C50.9456 36.345 50.8481 35.9781 50.8481 35.6048C50.8481 35.2315 50.9456 34.8646 51.131 34.5403C51.318 34.2284 51.5873 33.9737 51.9097 33.804C52.2273 33.6441 52.5757 33.554 52.9313 33.5398C53.2869 33.5257 53.6414 33.5877 53.9709 33.7218C54.245 33.8389 54.4874 34.0188 54.6786 34.2469L54.0831 34.7949C53.9612 34.6465 53.8072 34.5274 53.6328 34.4464C53.4583 34.3654 53.2679 34.3245 53.0754 34.3268C52.8437 34.3225 52.6148 34.3784 52.4112 34.4889C52.2182 34.5948 52.0594 34.7532 51.9532 34.9456C51.8464 35.15 51.7906 35.3772 51.7906 35.6077C51.7906 35.8382 51.8464 36.0653 51.9532 36.2698C52.0593 36.4622 52.2181 36.6206 52.4112 36.7264C52.6147 36.8373 52.8436 36.8935 53.0754 36.8896C53.2684 36.892 53.4594 36.8505 53.634 36.7684C53.8086 36.6864 53.9621 36.5658 54.0831 36.4159L54.6786 36.9638C54.4883 37.1952 54.2447 37.3773 53.9686 37.4946C53.6678 37.6198 53.3441 37.6812 53.0181 37.675C52.6318 37.6792 52.2507 37.5865 51.9097 37.4056Z" fill="#111219"/>
<path d="M63.7564 34.8291C63.9912 35.0574 64.1093 35.3961 64.1093 35.8451V37.6031H63.2156V35.9821C63.2313 35.7868 63.1741 35.5925 63.0554 35.4364C62.9964 35.3754 62.9253 35.3277 62.8465 35.2968C62.767 35.2659 62.6821 35.2524 62.5978 35.2572C62.4984 35.2525 62.399 35.2686 62.3063 35.3044C62.2136 35.3402 62.1293 35.3949 62.0594 35.465C61.9137 35.6376 61.842 35.8601 61.8589 36.0848V37.6031H60.9658V33.3679H61.8589V34.852C61.9805 34.7315 62.1274 34.6388 62.2882 34.5803C62.4641 34.5162 62.6507 34.4845 62.838 34.4867C63.006 34.48 63.1741 34.5069 63.3318 34.5657C63.4896 34.6245 63.6335 34.714 63.7564 34.8291Z" fill="#111219"/>
<path d="M72.9835 34.8211C73.2388 35.0494 73.3664 35.3918 73.367 35.8485V37.6008H72.5312V37.2183C72.3632 37.5037 72.0501 37.6464 71.5924 37.6464C71.381 37.6533 71.1709 37.6143 70.9764 37.5323C70.815 37.462 70.6771 37.3471 70.5789 37.2012C70.4868 37.0584 70.4386 36.8916 70.4416 36.7217C70.4362 36.5917 70.4627 36.4624 70.5193 36.3451C70.5753 36.2277 70.6596 36.1258 70.7644 36.0482C70.9806 35.885 71.313 35.8028 71.764 35.8028H72.474C72.4788 35.7196 72.4656 35.6364 72.4349 35.5589C72.4048 35.4814 72.3572 35.4115 72.2964 35.3542C72.144 35.2393 71.9549 35.1837 71.764 35.1978C71.5996 35.1976 71.4358 35.2234 71.2799 35.2742C71.1335 35.3191 70.9974 35.3899 70.8764 35.4832L70.556 34.861C70.7397 34.736 70.9438 34.6433 71.1594 34.5871C71.3955 34.522 71.6394 34.4893 71.8845 34.49C72.3614 34.4877 72.7281 34.5981 72.9835 34.8211ZM72.2223 36.9387C72.3409 36.8688 72.43 36.7585 72.474 36.6282V36.3142H71.8616C71.4948 36.3142 71.3118 36.4341 71.3118 36.6738C71.31 36.7264 71.3214 36.7786 71.3449 36.8259C71.3678 36.873 71.4027 36.9137 71.4455 36.9444C71.5545 37.017 71.6845 37.0523 71.8158 37.0448C71.9579 37.0487 72.0982 37.0136 72.2223 36.9432V36.9387Z" fill="#111219"/>
<path d="M84.7637 34.821C84.9931 35.0493 85.1076 35.3917 85.1076 35.8404V37.5984H84.2139V35.9774C84.229 35.7833 84.1754 35.5902 84.0622 35.4317C84.0086 35.3711 83.9417 35.3234 83.8671 35.2923C83.7918 35.2612 83.7111 35.2476 83.6304 35.2525C83.5377 35.2478 83.4449 35.2635 83.3588 35.2984C83.2727 35.3333 83.195 35.3866 83.1318 35.4545C82.9981 35.6259 82.9331 35.8407 82.9487 36.0573V37.5984H82.0557V35.9774C82.0557 35.4941 81.8612 35.2525 81.4715 35.2525C81.3794 35.2483 81.2879 35.2641 81.203 35.2991C81.118 35.334 81.0416 35.3871 80.9789 35.4545C80.8453 35.6259 80.7796 35.8407 80.7959 36.0573V37.5984H79.9028V34.5276H80.7561V34.8815C80.8712 34.7516 81.0151 34.65 81.1759 34.5846C81.3499 34.5147 81.536 34.4797 81.7233 34.4819C81.9274 34.4788 82.1291 34.5225 82.3134 34.6098C82.4862 34.6938 82.6326 34.8233 82.7367 34.9842C82.8638 34.8239 83.0276 34.6966 83.2143 34.6132C83.4136 34.5243 83.6298 34.4795 83.8478 34.4819C84.0158 34.4738 84.1832 34.4996 84.3404 34.5579C84.4981 34.6162 84.6421 34.7057 84.7637 34.821Z" fill="#111219"/>
<path d="M94.2344 34.683C94.4668 34.8123 94.6583 35.0041 94.7872 35.2367C94.9191 35.4938 94.9877 35.7784 94.9877 36.0671C94.9877 36.3559 94.9191 36.6404 94.7872 36.8976C94.6589 37.1303 94.4668 37.3222 94.2344 37.4512C93.9953 37.5838 93.7261 37.6518 93.4533 37.6488C93.0294 37.6488 92.7066 37.5156 92.4856 37.2492V37.6031H91.6323V33.3679H92.5254V34.8577C92.644 34.7322 92.7879 34.6341 92.9481 34.57C93.1083 34.5059 93.2805 34.4775 93.4533 34.4867C93.7261 34.4832 93.9953 34.5509 94.2344 34.683ZM93.8622 36.6864C94.005 36.5115 94.0832 36.2928 94.0832 36.0671C94.0832 35.8415 94.005 35.6227 93.8622 35.4478C93.7117 35.2997 93.5094 35.2166 93.298 35.2166C93.0866 35.2166 92.8843 35.2997 92.7337 35.4478C92.5916 35.623 92.5139 35.8417 92.5139 36.0671C92.5139 36.2926 92.5916 36.5112 92.7337 36.6864C92.8843 36.8345 93.0866 36.9176 93.298 36.9176C93.5094 36.9176 93.7117 36.8345 93.8622 36.6864Z" fill="#111219"/>
<path d="M104.309 36.3189H101.978C102.014 36.5041 102.121 36.6681 102.277 36.7754C102.449 36.8909 102.653 36.9488 102.861 36.941C103.006 36.9436 103.15 36.9192 103.286 36.8691C103.415 36.8171 103.532 36.7394 103.63 36.6408L104.105 37.1544C103.815 37.4855 103.391 37.651 102.834 37.651C102.517 37.6568 102.203 37.5871 101.918 37.4478C101.662 37.3239 101.447 37.1289 101.3 36.8862C101.152 36.6396 101.077 36.3569 101.082 36.07C101.078 35.7843 101.152 35.503 101.296 35.2561C101.437 35.0174 101.641 34.822 101.886 34.691C102.142 34.5598 102.426 34.4907 102.714 34.4893C103.002 34.4879 103.286 34.5542 103.544 34.683C103.784 34.8101 103.983 35.003 104.117 35.2389C104.26 35.4962 104.332 35.787 104.326 36.0814C104.326 36.0913 104.32 36.1704 104.309 36.3189ZM102.219 35.3314C102.079 35.4501 101.989 35.6173 101.967 35.7994H103.485C103.461 35.6186 103.371 35.4527 103.233 35.3337C103.091 35.2169 102.912 35.1552 102.729 35.1602C102.544 35.1542 102.363 35.215 102.219 35.3314Z" fill="#111219"/>
<path d="M111.932 34.6008C112.131 34.5212 112.345 34.4824 112.559 34.4866V35.3085C112.46 35.3006 112.394 35.2972 112.359 35.2972C112.251 35.2908 112.143 35.306 112.04 35.3419C111.938 35.3778 111.844 35.4335 111.764 35.506C111.618 35.6491 111.545 35.8634 111.546 36.1487V37.5985H110.653V34.5277H111.506V34.9353C111.614 34.7866 111.761 34.6707 111.932 34.6008Z" fill="#111219"/>
<path d="M127.06 37.4055C126.737 37.2358 126.468 36.9811 126.28 36.6692C126.096 36.3449 125.998 35.978 125.998 35.6047C125.998 35.2315 126.096 34.8646 126.28 34.5402C126.468 34.2283 126.737 33.9736 127.06 33.8039C127.376 33.6448 127.724 33.5552 128.078 33.5411C128.433 33.5269 128.786 33.5885 129.115 33.7217C129.389 33.8388 129.632 34.0188 129.823 34.2468L129.227 34.7948C129.105 34.6464 128.951 34.5273 128.777 34.4463C128.603 34.3653 128.412 34.3244 128.22 34.3267C127.988 34.3225 127.759 34.3783 127.555 34.4889C127.363 34.5948 127.204 34.7531 127.097 34.9455C126.99 35.1499 126.934 35.3771 126.934 35.6076C126.934 35.8381 126.99 36.0652 127.097 36.2697C127.203 36.4621 127.362 36.6206 127.555 36.7263C127.759 36.8372 127.988 36.8934 128.22 36.8895C128.412 36.8919 128.604 36.8504 128.778 36.7684C128.952 36.6863 129.106 36.5658 129.227 36.4158L129.823 36.9638C129.632 37.1949 129.388 37.3769 129.113 37.4946C128.814 37.6197 128.492 37.6819 128.168 37.6772C127.781 37.6808 127.4 37.5874 127.06 37.4055Z" fill="#111219"/>
<path d="M138.903 34.8291C139.138 35.0574 139.256 35.3961 139.256 35.8451V37.6031H138.363V35.9821C138.378 35.7868 138.321 35.5925 138.202 35.4364C138.143 35.3754 138.072 35.3278 137.993 35.2969C137.914 35.2659 137.829 35.2524 137.745 35.2572C137.645 35.2524 137.546 35.2684 137.453 35.3042C137.361 35.34 137.276 35.3947 137.206 35.465C137.061 35.6376 136.989 35.8601 137.006 36.0848V37.6031H136.113V33.3679H137.006V34.852C137.127 34.7315 137.274 34.6388 137.435 34.5803C137.611 34.5161 137.798 34.4844 137.985 34.4867C138.153 34.48 138.321 34.5069 138.479 34.5657C138.637 34.6245 138.78 34.714 138.903 34.8291Z" fill="#111219"/>
<path d="M146.418 37.4466C146.168 37.3194 145.959 37.1248 145.814 36.885C145.671 36.6367 145.596 36.3552 145.596 36.0688C145.596 35.7823 145.671 35.5009 145.814 35.2526C145.959 35.0127 146.168 34.8179 146.418 34.6898C146.689 34.5569 146.987 34.4878 147.29 34.4878C147.593 34.4878 147.891 34.5569 148.162 34.6898C148.41 34.8189 148.618 35.0136 148.763 35.2526C148.906 35.5011 148.981 35.7825 148.981 36.0688C148.981 36.3551 148.906 36.6364 148.763 36.885C148.619 37.124 148.41 37.3183 148.162 37.4466C147.891 37.5803 147.593 37.6498 147.29 37.6498C146.987 37.6498 146.689 37.5803 146.418 37.4466ZM147.855 36.6875C147.998 36.5126 148.076 36.2939 148.076 36.0682C148.076 35.8426 147.998 35.6238 147.855 35.4489C147.783 35.3733 147.695 35.3139 147.598 35.2746C147.501 35.2352 147.396 35.2169 147.291 35.2206C147.185 35.2162 147.08 35.2343 146.981 35.2736C146.882 35.3129 146.793 35.3727 146.719 35.4489C146.575 35.6232 146.496 35.8422 146.496 36.0682C146.496 36.2943 146.575 36.5132 146.719 36.6875C146.793 36.7637 146.882 36.8234 146.981 36.8627C147.08 36.9021 147.185 36.9202 147.291 36.9158C147.396 36.9194 147.501 36.9009 147.598 36.8613C147.695 36.8217 147.783 36.7621 147.855 36.6863V36.6875Z" fill="#111219"/>
<path d="M155.348 33.9615C155.299 33.9164 155.26 33.8616 155.233 33.8007C155.207 33.7398 155.193 33.6741 155.193 33.6076C155.193 33.5413 155.207 33.4755 155.233 33.4146C155.26 33.3537 155.299 33.299 155.348 33.2538C155.458 33.1567 155.602 33.1056 155.749 33.1111C155.894 33.105 156.038 33.1539 156.149 33.2481C156.199 33.2903 156.238 33.3429 156.265 33.4021C156.291 33.4613 156.305 33.5257 156.303 33.5905C156.305 33.6591 156.292 33.7275 156.266 33.7908C156.239 33.8542 156.2 33.9112 156.149 33.9581C156.037 34.0516 155.895 34.1027 155.749 34.1027C155.602 34.1027 155.46 34.0516 155.348 33.9581V33.9615ZM155.301 34.5323H156.195V37.6031H155.301V34.5323Z" fill="#111219"/>
<path d="M164.036 34.6008C164.235 34.5212 164.448 34.4824 164.662 34.4866V35.3085C164.563 35.3005 164.496 35.2972 164.462 35.2972C164.353 35.2908 164.243 35.3065 164.139 35.3432C164.036 35.3798 163.941 35.4367 163.861 35.5106C163.716 35.6537 163.644 35.8679 163.644 36.1533V37.6031H162.75V34.5323H163.603V34.9352C163.713 34.786 163.863 34.6701 164.036 34.6008Z" fill="#111219"/>
</g>
<defs>
<clipPath id="clip0_360_466">
<rect width="165" height="47.9531" fill="white"/>
</clipPath>
</defs>
</svg>
