<svg width="181" height="53" viewBox="0 0 181 53" fill="none" xmlns="http://www.w3.org/2000/svg">
<g clip-path="url(#clip0_461_32)">
<path fill-rule="evenodd" clip-rule="evenodd" d="M20.9171 34.7434C17.5458 35.714 10.6678 33.5597 11.8477 27.2477C12.5651 23.416 15.7101 21.2668 18.986 19.028L19.0183 19.006C19.1124 20.2936 19.2187 21.766 19.3288 23.3466C19.6102 23.2608 19.898 23.1949 20.1897 23.1495L20.1451 22.5102L20.1448 22.5064C20.0444 21.0679 19.9483 19.6909 19.8613 18.4279C21.6933 17.1616 23.5027 15.818 24.8896 14.089C28.9806 8.98918 29.0173 2.88495 26.2068 0.591203C24.6411 -0.687542 22.6699 0.255533 21.1457 2.01203C19.5555 3.77385 17.7679 6.79485 18.5695 14.6751L18.4974 14.7336C14.4589 18.007 9.66772 21.8905 9.20379 26.999C8.57993 33.8589 15.5229 38.3869 20.9171 34.7434ZM19.4173 11.655C19.3983 10.6615 19.4637 9.66821 19.6129 8.68455H19.6233C19.8227 7.40404 20.2283 5.96193 21.0215 4.65654C23.0783 1.27143 24.9093 1.69678 25.4033 3.21352C25.8972 4.73024 26.1089 7.65358 22.1816 11.5671C21.4336 12.3122 20.5218 13.0847 19.533 13.8946C19.4944 13.1832 19.4182 11.7198 19.4173 11.6541V11.655Z" fill="#A68448"/>
<path d="M18.4492 45.285C13.4311 44.9251 8.74223 42.7895 5.32131 39.3059C1.90035 35.8224 -0.000244045 31.2479 2.3504e-08 26.4982C2.3504e-08 17.4813 6.798 9.70222 16.1685 7.99902L16.3463 8.87106C7.41809 10.4935 0.940903 17.9066 0.940903 26.4982C0.940903 35.8392 8.66191 43.7026 18.5188 44.3997L18.4492 45.285Z" fill="#A68448"/>
<path d="M24.0373 44.9457L23.8491 44.0763C32.6202 42.3589 38.9863 34.9661 38.9863 26.498C38.9834 23.2992 38.0764 20.159 36.359 17.4012C34.6416 14.6435 32.1758 12.368 29.216 10.8094L29.6743 10.0342C33.2305 11.9038 36.0963 14.7546 37.8877 18.2045C39.6792 21.6544 40.3105 25.5387 39.6973 29.3368C39.084 33.1349 37.2554 36.6654 34.4565 39.4552C31.6577 42.2449 28.0222 44.1606 24.0373 44.9457Z" fill="#A68448"/>
<path d="M20.4514 41.6629C20.7253 41.463 21.0386 41.2268 21.366 40.9746L21.9296 48.7891C22.0181 49.916 21.3246 51.3271 19.7543 52.2311C17.8725 53.3136 15.7357 53.2452 14.9801 52.0757C14.2246 50.9062 15.1382 49.0813 17.02 47.9988C18.3749 47.2191 19.8596 47.0398 20.8683 47.4349L20.4514 41.6629Z" fill="#A68448"/>
<path d="M30.708 30.3752C30.7155 30.3983 30.7221 30.4223 30.7277 30.4463C30.7717 30.6135 30.7707 30.7885 30.725 30.9553C30.6792 31.1222 30.5902 31.2757 30.4658 31.4019C30.3415 31.5281 30.1858 31.623 30.0128 31.6782C29.8398 31.7334 29.6551 31.747 29.4751 31.7178C29.2951 31.6887 29.1257 31.6177 28.9821 31.5113C28.8385 31.4048 28.7253 31.2663 28.6527 31.1082C28.58 30.95 28.5503 30.7773 28.5662 30.6057C28.582 30.434 28.6429 30.2687 28.7434 30.1248C28.8601 29.9655 29.0212 29.8398 29.209 29.7616C29.3966 29.6833 29.6037 29.6556 29.8071 29.6816C30.0104 29.7075 30.2022 29.786 30.3612 29.9085C30.5202 30.0309 30.6403 30.1924 30.708 30.3752Z" fill="#A68448"/>
<path d="M29.2471 27.3783C29.3872 27.3456 29.5191 27.2872 29.6354 27.2065C29.7516 27.1257 29.8498 27.0241 29.9244 26.9075C29.999 26.7909 30.0485 26.6616 30.0702 26.5269C30.0919 26.3922 30.0852 26.2549 30.0506 26.1226C30.045 26.0983 30.0381 26.0743 30.0299 26.0507C29.9622 25.8679 29.8422 25.7064 29.6832 25.584C29.5242 25.4616 29.3325 25.3831 29.1292 25.3573C28.9259 25.3315 28.7189 25.3592 28.5313 25.4376C28.3437 25.516 28.1827 25.6418 28.0662 25.8011C27.9443 25.9752 27.881 26.18 27.8844 26.3887C27.8878 26.5973 27.9579 26.8001 28.0856 26.9705C28.2132 27.141 28.3923 27.2711 28.5996 27.3438C28.8068 27.4166 29.0325 27.4286 29.2471 27.3783Z" fill="#A68448"/>
<path d="M23.8159 24.9734C24.8269 25.2772 25.714 25.868 26.3564 26.665C27.1311 27.6028 27.5714 28.748 27.6144 29.9365C27.7084 33.9627 22.5787 38.4623 18.2053 41.2027C18.1993 41.2066 18.2703 41.13 18.3977 40.9927C19.0021 40.3409 20.8759 38.3203 21.8146 37.0228C23.2636 35.1757 25.1765 31.7764 24.1575 28.4313C23.6513 26.8239 22.8487 25.5061 20.9669 25.515L20.9302 25.5194C17.8384 25.8303 17.4677 28.0441 17.5364 28.1977C17.6526 28.4488 17.9319 28.3472 18.3105 28.2095C18.9188 27.9882 19.7837 27.6736 20.6413 28.5778C21.8184 29.8867 20.6404 31.4816 19.4925 31.6432C18.0633 31.843 16.6623 30.8769 16.3 28.9961C16.1636 28.2386 16.3584 25.8054 20.0279 24.8366H20.0523C21.2977 24.5682 22.5961 24.6154 23.8159 24.9734Z" fill="#A68448"/>
<path d="M70.3187 26.3312L70.2963 15.553L64.6318 24.5343H63.6008L57.9303 15.6132V26.3312H55.7793V11.5337H57.6169L64.1577 21.9303L70.6094 11.5337H72.4471L72.4696 26.3312H70.3187Z" fill="white"/>
<path d="M80.6452 25.5175C79.4039 24.8873 78.3695 23.9476 77.654 22.8011C76.9419 21.6225 76.5674 20.2891 76.5674 18.9324C76.5674 17.5757 76.9419 16.2423 77.654 15.0636C78.3695 13.9171 79.4039 12.9775 80.6452 12.3472C81.9148 11.6922 83.341 11.3647 84.9238 11.3647C86.4927 11.3647 87.9116 11.6922 89.1806 12.3472C90.4179 12.9726 91.4484 13.9075 92.1598 15.0494C92.8779 16.2003 93.2366 17.4946 93.2366 18.9324C93.2366 20.3701 92.8779 21.6632 92.1611 22.8115C91.4503 23.9548 90.4192 24.891 89.1812 25.5175C87.9116 26.1731 86.4927 26.5006 84.9251 26.5C83.341 26.5 81.9148 26.1725 80.6452 25.5175ZM88.0239 23.8789C88.9335 23.3978 89.6866 22.6926 90.2045 21.8386C90.7257 20.9488 90.9992 19.9487 90.9992 18.9319C90.9992 17.9151 90.7257 16.915 90.2045 16.0251C89.6886 15.1727 88.9375 14.468 88.0312 13.9858C87.0839 13.4856 86.0131 13.2303 84.9277 13.2457C83.8358 13.232 82.7584 13.4871 81.8025 13.9858C80.8869 14.4632 80.1273 15.1686 79.6074 16.0251C79.0862 16.915 78.8127 17.9151 78.8127 18.9319C78.8127 19.9487 79.0862 20.9488 79.6074 21.8386C80.1273 22.6957 80.8863 23.4014 81.8025 23.8789C82.7584 24.3776 83.8358 24.6327 84.9277 24.619C86.0118 24.6337 87.0812 24.3784 88.0272 23.8789H88.0239Z" fill="white"/>
<path d="M107.819 26.3312L104.437 21.7863C104.018 21.8149 103.689 21.8282 103.451 21.8282H99.576V26.3312H97.3359V11.5337H103.451C105.482 11.5337 107.08 11.9915 108.245 12.9071C109.411 13.8228 109.993 15.0844 109.993 16.6919C109.993 17.8327 109.694 18.805 109.096 19.6087C108.498 20.4125 107.648 20.9975 106.543 21.3637L110.262 26.3312H107.819ZM106.632 19.1652C107.379 18.5872 107.753 17.7628 107.752 16.6919C107.751 15.6211 107.378 14.8002 106.632 14.2292C105.885 13.6569 104.802 13.3707 103.384 13.3707H99.576V20.0293H103.384C104.802 20.0306 105.885 19.7426 106.632 19.1652Z" fill="white"/>
<path d="M124.286 22.6314H115.951L114.226 26.3312H111.919L119.02 11.5337H121.236L128.362 26.3312H126.01L124.286 22.6314ZM123.501 20.9402L120.118 13.6912L116.736 20.9402H123.501Z" fill="white"/>
<path d="M144.157 11.5337L137.283 26.3312H135.059L128.161 11.5337H130.58L136.226 23.6892L141.915 11.5337H144.157Z" fill="white"/>
<path d="M147.975 25.9821C146.877 25.6368 146.015 25.1895 145.387 24.6401L146.216 22.9909C146.813 23.4996 147.579 23.9129 148.513 24.2309C149.436 24.5465 150.41 24.7079 151.391 24.7078C152.691 24.7078 153.662 24.5002 154.304 24.0849C154.945 23.6697 155.266 23.1165 155.267 22.4253C155.276 22.1954 155.235 21.9662 155.144 21.7526C155.054 21.539 154.916 21.3457 154.741 21.1853C154.369 20.8567 153.925 20.608 153.442 20.4566C152.926 20.2869 152.198 20.0961 151.257 19.8843C150.287 19.6768 149.333 19.4085 148.401 19.0812C147.683 18.8172 147.045 18.3915 146.542 17.8412C146.026 17.2855 145.768 16.5352 145.768 15.5902C145.758 14.8325 145.989 14.0891 146.43 13.4556C146.87 12.8197 147.539 12.311 148.435 11.9295C149.331 11.5479 150.443 11.3572 151.77 11.3572C152.692 11.3572 153.609 11.4707 154.5 11.6949C155.323 11.8896 156.104 12.2189 156.807 12.6677L156.068 14.3589C155.415 13.9658 154.706 13.6632 153.962 13.4603C153.249 13.2606 152.51 13.1572 151.766 13.1532C150.497 13.1532 149.545 13.3716 148.91 13.8085C148.275 14.2454 147.958 14.8091 147.958 15.4996C147.949 15.7305 147.992 15.9606 148.084 16.1744C148.178 16.3883 148.318 16.581 148.496 16.7396C148.88 17.0713 149.335 17.3234 149.829 17.4797C150.538 17.703 151.26 17.89 151.991 18.0397C152.957 18.2467 153.907 18.5151 154.836 18.8427C155.546 19.1067 156.18 19.5273 156.684 20.0694C157.198 20.6188 157.455 21.3587 157.456 22.2889C157.463 23.0446 157.229 23.7846 156.784 24.4131C156.336 25.0553 155.657 25.564 154.746 25.9392C153.835 26.3143 152.715 26.501 151.385 26.4991C150.227 26.5021 149.075 26.3275 147.975 25.9821Z" fill="white"/>
<path d="M166.513 19.7566L163.645 22.5045V26.3312H161.406V11.5337H163.645V19.7995L172.158 11.5337H174.713L168.014 18.1971L175.138 26.336H172.517L166.513 19.7566Z" fill="white"/>
<path d="M178.185 11.5337H180.425V26.3312H178.185V11.5337Z" fill="white"/>
<path d="M56.9438 41.3422C56.5902 41.1547 56.2947 40.8732 56.0896 40.5284C55.8862 40.1699 55.7793 39.7645 55.7793 39.3519C55.7793 38.9393 55.8862 38.5338 56.0896 38.1754C56.2947 37.8306 56.5902 37.5491 56.9438 37.3616C57.2922 37.1848 57.6744 37.0853 58.0645 37.0696C58.4545 37.0539 58.8434 37.1225 59.2049 37.2707C59.5055 37.4001 59.7715 37.599 59.9812 37.8511L59.328 38.4567C59.1942 38.2927 59.0253 38.1611 58.834 38.0715C58.6426 37.982 58.4337 37.9368 58.2225 37.9394C57.9683 37.9347 57.7172 37.9964 57.494 38.1186C57.2823 38.2356 57.108 38.4107 56.9915 38.6233C56.8743 38.8492 56.8132 39.1003 56.8132 39.3551C56.8132 39.6098 56.8743 39.8608 56.9915 40.0868C57.1079 40.2995 57.2821 40.4746 57.494 40.5915C57.7171 40.7141 57.9682 40.7762 58.2225 40.7719C58.4343 40.7745 58.6438 40.7287 58.8353 40.638C59.0268 40.5473 59.1952 40.4141 59.328 40.2483L59.9812 40.854C59.7724 41.1096 59.5052 41.3109 59.2024 41.4406C58.8723 41.5789 58.5173 41.6468 58.1597 41.64C57.7359 41.6446 57.3179 41.5422 56.9438 41.3422Z" fill="white"/>
<path d="M69.9386 38.4946C70.1962 38.7469 70.3257 39.1212 70.3257 39.6175V41.5605H69.3454V39.769C69.3626 39.553 69.2998 39.3384 69.1697 39.1658C69.1049 39.0984 69.027 39.0457 68.9404 39.0115C68.8532 38.9774 68.7601 38.9624 68.6676 38.9677C68.5586 38.9626 68.4496 38.9804 68.3479 39.02C68.2462 39.0595 68.1537 39.1199 68.0771 39.1974C67.9172 39.3882 67.8386 39.6341 67.8571 39.8825V41.5605H66.8774V36.8796H67.8571V38.5199C67.9905 38.3867 68.1517 38.2843 68.3281 38.2196C68.521 38.1488 68.7258 38.1137 68.9312 38.1161C69.1155 38.1088 69.2998 38.1385 69.4729 38.2034C69.6459 38.2684 69.8038 38.3674 69.9386 38.4946Z" fill="white"/>
<path d="M80.0606 38.4858C80.3407 38.7381 80.4807 39.1166 80.4814 39.6213V41.558H79.5645V41.1354C79.3802 41.4508 79.0367 41.6085 78.5346 41.6085C78.3028 41.6161 78.0722 41.573 77.8588 41.4823C77.6818 41.4046 77.5305 41.2777 77.4229 41.1164C77.3218 40.9586 77.2689 40.7743 77.2722 40.5865C77.2663 40.4428 77.2954 40.2999 77.3575 40.1702C77.4189 40.0405 77.5114 39.9278 77.6263 39.8421C77.8635 39.6617 78.2281 39.5708 78.7229 39.5708H79.5017C79.507 39.4789 79.4925 39.3869 79.4588 39.3012C79.4257 39.2156 79.3736 39.1384 79.3068 39.075C79.1397 38.948 78.9323 38.8866 78.7229 38.9022C78.5425 38.902 78.3629 38.9305 78.1918 38.9867C78.0313 39.0362 77.882 39.1145 77.7492 39.2176L77.3978 38.53C77.5992 38.3917 77.8232 38.2893 78.0597 38.2272C78.3186 38.1552 78.5861 38.1192 78.855 38.1199C79.3782 38.1174 79.7805 38.2393 80.0606 38.4858ZM79.2256 40.8263C79.3557 40.749 79.4535 40.6271 79.5017 40.4831V40.1361H78.8299C78.4276 40.1361 78.2268 40.2686 78.2268 40.5336C78.2248 40.5917 78.2374 40.6494 78.2631 40.7016C78.2882 40.7537 78.3265 40.7987 78.3734 40.8326C78.493 40.9129 78.6357 40.9518 78.7797 40.9435C78.9356 40.9478 79.0895 40.909 79.2256 40.8313V40.8263Z" fill="white"/>
<path d="M92.9831 38.4857C93.2348 38.738 93.3603 39.1166 93.3603 39.6124V41.5554H92.38V39.7638C92.3965 39.5493 92.3377 39.3359 92.2135 39.1607C92.1547 39.0937 92.0814 39.041 91.9995 39.0067C91.9169 38.9723 91.8284 38.9573 91.7399 38.9627C91.6382 38.9575 91.5364 38.9748 91.442 39.0134C91.3475 39.0519 91.2623 39.1109 91.1929 39.186C91.0463 39.3753 90.9749 39.6127 90.9921 39.8521V41.5554H90.0125V39.7638C90.0125 39.2297 89.7991 38.9627 89.3717 38.9627C89.2706 38.958 89.1702 38.9755 89.0771 39.0141C88.9839 39.0527 88.9 39.1114 88.8313 39.186C88.6847 39.3753 88.6127 39.6127 88.6305 39.8521V41.5554H87.6509V38.1615H88.5869V38.5526C88.7131 38.409 88.871 38.2968 89.0474 38.2245C89.2383 38.1472 89.4424 38.1085 89.6478 38.111C89.8718 38.1075 90.0931 38.1559 90.2952 38.2523C90.4848 38.3451 90.6453 38.4882 90.7596 38.6661C90.899 38.489 91.0787 38.3483 91.2834 38.2561C91.5021 38.1578 91.7392 38.1084 91.9784 38.111C92.1627 38.102 92.3463 38.1306 92.5187 38.195C92.6918 38.2593 92.8497 38.3583 92.9831 38.4857Z" fill="white"/>
<path d="M103.372 38.3331C103.627 38.4761 103.837 38.6881 103.978 38.9451C104.123 39.2292 104.198 39.5438 104.198 39.8629C104.198 40.182 104.123 40.4966 103.978 40.7808C103.838 41.038 103.627 41.2501 103.372 41.3927C103.11 41.5392 102.814 41.6144 102.515 41.611C102.05 41.611 101.696 41.4638 101.454 41.1694V41.5605H100.518V36.8796H101.497V38.5262C101.627 38.3875 101.785 38.2791 101.961 38.2082C102.137 38.1374 102.326 38.106 102.515 38.1161C102.814 38.1123 103.11 38.1871 103.372 38.3331ZM102.964 40.5474C103.12 40.354 103.206 40.1123 103.206 39.8629C103.206 39.6136 103.12 39.3718 102.964 39.1784C102.799 39.0147 102.577 38.9228 102.345 38.9228C102.113 38.9228 101.891 39.0147 101.726 39.1784C101.57 39.3721 101.485 39.6137 101.485 39.8629C101.485 40.1121 101.57 40.3537 101.726 40.5474C101.891 40.7111 102.113 40.803 102.345 40.803C102.577 40.803 102.799 40.7111 102.964 40.5474Z" fill="white"/>
<path d="M114.424 40.1413H111.867C111.906 40.346 112.024 40.5273 112.194 40.6459C112.383 40.7735 112.607 40.8376 112.835 40.8289C112.994 40.8318 113.153 40.8048 113.302 40.7494C113.443 40.6919 113.571 40.6061 113.678 40.4971L114.2 41.0648C113.881 41.4307 113.416 41.6137 112.806 41.6137C112.458 41.62 112.114 41.543 111.8 41.3891C111.52 41.2522 111.285 41.0366 111.123 40.7683C110.961 40.4958 110.878 40.1833 110.884 39.8662C110.88 39.5505 110.96 39.2395 111.119 38.9667C111.273 38.7029 111.497 38.4869 111.765 38.3421C112.047 38.1971 112.358 38.1207 112.674 38.1192C112.99 38.1176 113.302 38.191 113.585 38.3332C113.848 38.4738 114.066 38.687 114.213 38.9477C114.37 39.2321 114.449 39.5535 114.443 39.8788C114.443 39.8898 114.436 39.9773 114.424 40.1413ZM112.131 39.0499C111.977 39.1811 111.878 39.3659 111.855 39.5672H113.519C113.494 39.3673 113.395 39.184 113.243 39.0524C113.088 38.9233 112.892 38.8552 112.69 38.8607C112.487 38.854 112.289 38.9212 112.131 39.0499Z" fill="white"/>
<path d="M122.786 38.2422C123.005 38.1543 123.239 38.1114 123.474 38.1161V39.0244C123.365 39.0157 123.293 39.0119 123.254 39.0119C123.136 39.0049 123.017 39.0217 122.905 39.0614C122.792 39.101 122.689 39.1626 122.602 39.2428C122.441 39.4009 122.362 39.6377 122.362 39.9531V41.5555H121.383V38.1615H122.319V38.6119C122.437 38.4476 122.599 38.3195 122.786 38.2422Z" fill="white"/>
<path d="M139.38 41.3422C139.026 41.1547 138.731 40.8732 138.526 40.5284C138.323 40.17 138.216 39.7645 138.216 39.3519C138.216 38.9394 138.323 38.5338 138.526 38.1754C138.731 37.8306 139.026 37.5491 139.38 37.3616C139.728 37.1858 140.109 37.0867 140.497 37.071C140.887 37.0554 141.274 37.1235 141.635 37.2707C141.936 37.4002 142.202 37.599 142.411 37.8511L141.758 38.4567C141.624 38.2928 141.455 38.1611 141.264 38.0715C141.073 37.982 140.863 37.9368 140.653 37.9394C140.398 37.9347 140.147 37.9965 139.924 38.1186C139.713 38.2357 139.538 38.4107 139.421 38.6233C139.304 38.8493 139.243 39.1003 139.243 39.3551C139.243 39.6099 139.304 39.8609 139.421 40.0869C139.538 40.2996 139.712 40.4747 139.924 40.5915C140.147 40.7141 140.398 40.7762 140.653 40.772C140.864 40.7745 141.074 40.7287 141.265 40.638C141.457 40.5473 141.625 40.4141 141.758 40.2483L142.411 40.854C142.202 41.1094 141.935 41.3106 141.632 41.4406C141.305 41.5789 140.952 41.6477 140.596 41.6425C140.172 41.6465 139.754 41.5432 139.38 41.3422Z" fill="white"/>
<path d="M152.373 38.4946C152.631 38.7469 152.76 39.1212 152.76 39.6175V41.5605H151.78V39.769C151.797 39.553 151.734 39.3384 151.604 39.1658C151.54 39.0984 151.462 39.0458 151.375 39.0116C151.288 38.9774 151.195 38.9625 151.102 38.9677C150.993 38.9624 150.884 38.9801 150.782 39.0197C150.681 39.0593 150.588 39.1198 150.512 39.1974C150.352 39.3882 150.273 39.6341 150.292 39.8825V41.5605H149.312V36.8796H150.292V38.5199C150.425 38.3867 150.586 38.2843 150.763 38.2196C150.956 38.1487 151.16 38.1137 151.366 38.1161C151.55 38.1088 151.734 38.1385 151.907 38.2034C152.081 38.2684 152.238 38.3674 152.373 38.4946Z" fill="white"/>
<path d="M160.616 41.3877C160.341 41.247 160.112 41.0319 159.954 40.7669C159.796 40.4925 159.714 40.1814 159.714 39.8648C159.714 39.5482 159.796 39.2371 159.954 38.9627C160.113 38.6976 160.342 38.4822 160.616 38.3407C160.913 38.1938 161.24 38.1174 161.573 38.1174C161.904 38.1174 162.231 38.1938 162.529 38.3407C162.801 38.4834 163.029 38.6985 163.189 38.9627C163.345 39.2374 163.427 39.5484 163.427 39.8648C163.427 40.1813 163.345 40.4922 163.189 40.7669C163.03 41.031 162.801 41.2459 162.529 41.3877C162.231 41.5354 161.904 41.6123 161.573 41.6123C161.24 41.6123 160.913 41.5354 160.616 41.3877ZM162.192 40.5486C162.349 40.3553 162.435 40.1136 162.435 39.8642C162.435 39.6148 162.349 39.373 162.192 39.1797C162.113 39.0962 162.017 39.0305 161.91 38.987C161.804 38.9435 161.689 38.9232 161.574 38.9274C161.458 38.9225 161.342 38.9425 161.233 38.9859C161.125 39.0294 161.027 39.0955 160.947 39.1797C160.788 39.3723 160.701 39.6144 160.701 39.8642C160.701 40.114 160.788 40.356 160.947 40.5486C161.027 40.6328 161.125 40.6988 161.233 40.7423C161.342 40.7858 161.458 40.8058 161.574 40.801C161.689 40.805 161.804 40.7845 161.91 40.7407C162.017 40.697 162.113 40.6311 162.192 40.5474V40.5486Z" fill="white"/>
<path d="M170.411 37.5357C170.358 37.4858 170.315 37.4252 170.286 37.358C170.257 37.2906 170.242 37.218 170.242 37.1446C170.242 37.0712 170.257 36.9986 170.286 36.9313C170.315 36.8639 170.358 36.8034 170.411 36.7535C170.532 36.6461 170.69 36.5897 170.851 36.5958C171.011 36.589 171.169 36.6431 171.291 36.7471C171.345 36.7938 171.388 36.852 171.418 36.9174C171.447 36.9829 171.461 37.054 171.459 37.1257C171.462 37.2015 171.448 37.277 171.419 37.3471C171.39 37.4171 171.346 37.4801 171.291 37.5319C171.167 37.6352 171.012 37.6917 170.851 37.6917C170.691 37.6917 170.535 37.6352 170.411 37.5319V37.5357ZM170.36 38.1666H171.341V41.5606H170.36V38.1666Z" fill="white"/>
<path d="M179.942 38.2422C180.16 38.1542 180.394 38.1113 180.629 38.1161V39.0245C180.521 39.0156 180.447 39.0119 180.409 39.0119C180.29 39.0049 180.17 39.0222 180.056 39.0628C179.943 39.1033 179.839 39.1662 179.75 39.2478C179.591 39.4059 179.512 39.6427 179.512 39.9581V41.5605H178.531V38.1666H179.467V38.6119C179.588 38.4469 179.753 38.3189 179.942 38.2422Z" fill="white"/>
</g>
<defs>
<clipPath id="clip0_461_32">
<rect width="181" height="53" fill="white"/>
</clipPath>
</defs>
</svg>
