<svg width="50" height="50" viewBox="0 0 50 50" fill="none" xmlns="http://www.w3.org/2000/svg">
<g clip-path="url(#clip0_435_396)">
<mask id="mask0_435_396" style="mask-type:luminance" maskUnits="userSpaceOnUse" x="0" y="0" width="50" height="50">
<path d="M50 0H0V50H50V0Z" fill="white"/>
</mask>
<g mask="url(#mask0_435_396)">
<path d="M9.47562 44.9084V42.2629C9.47562 41.2484 8.87488 40.5873 7.88882 40.5873C7.37093 40.5873 6.8168 40.764 6.43046 41.3325C6.13009 40.847 5.70543 40.5873 5.05807 40.5873C4.81738 40.5766 4.57787 40.6274 4.36096 40.7352C4.14406 40.8429 3.95653 41.0043 3.81515 41.2047V40.6725H3V44.9052H3.81515V42.4834C3.81515 41.7381 4.24395 41.3814 4.84471 41.3814C5.44545 41.3814 5.78829 41.7786 5.78829 42.4834V44.9084H6.60343V42.4834C6.60343 41.7381 7.03224 41.3814 7.63299 41.3814C8.23373 41.3814 8.57658 41.7786 8.57658 42.4834V44.9084H9.47562ZM22.8598 40.7193H21.3579V39.4419H20.5449V40.7193H19.6872V41.4646H20.5449V43.4532C20.5449 44.4229 20.8878 44.9967 21.9173 44.9967C22.3073 44.9884 22.6895 44.8825 23.0307 44.688L22.7728 43.9429C22.5414 44.0915 22.273 44.1681 22.0001 44.1632C21.5713 44.1632 21.3569 43.8981 21.3569 43.4574V41.4304H22.8587V40.7247L22.8598 40.7193ZM30.4955 40.5873C30.2735 40.5822 30.0539 40.6364 29.8584 40.7447C29.6629 40.8529 29.4981 41.0114 29.3799 41.2047V40.6725H28.5648V44.9052H29.3799V42.528C29.3799 41.8222 29.7228 41.3814 30.2811 41.3814C30.4695 41.3894 30.6564 41.4189 30.8384 41.4698L31.0962 40.6757C30.8995 40.6247 30.6982 40.5951 30.4955 40.5873ZM18.956 41.028C18.5272 40.7193 17.9264 40.5873 17.2832 40.5873C16.2537 40.5873 15.6105 41.0727 15.6105 41.9106C15.6105 42.6164 16.0828 43.0124 16.9829 43.1455L17.4117 43.1891C17.884 43.2775 18.1843 43.4542 18.1843 43.6745C18.1843 43.9833 17.8415 44.2068 17.1973 44.2068C16.7053 44.2173 16.2235 44.0626 15.8249 43.7661L15.3961 44.4272C15.9968 44.868 16.726 44.9595 17.1569 44.9595C18.3583 44.9595 19.0015 44.3868 19.0015 43.5926C19.0015 42.8474 18.4837 42.4908 17.5857 42.3577L17.1569 42.3141C16.7706 42.2704 16.4318 42.1374 16.4318 41.8733C16.4318 41.5646 16.7747 41.3411 17.2469 41.3411C17.7649 41.3411 18.2766 41.5614 18.5345 41.6934L18.956 41.028ZM31.3966 42.7921C31.3966 44.0696 32.2117 44.9967 33.5417 44.9967C34.1424 44.9967 34.5712 44.8647 35 44.5113L34.5712 43.8502C34.2677 44.1029 33.8898 44.2429 33.4992 44.2473C32.7742 44.2473 32.2118 43.6745 32.2118 42.8368C32.2118 41.999 32.767 41.4304 33.4992 41.4304C33.8898 41.4349 34.2677 41.5748 34.5712 41.8275L35 41.1664C34.5712 40.8141 34.1424 40.681 33.5417 40.681C32.2542 40.5927 31.3966 41.5188 31.3966 42.7973V42.7921ZM25.6481 40.5873C24.4466 40.5873 23.6315 41.4688 23.6315 42.7921C23.6315 44.1153 24.4891 44.9967 25.733 44.9967C26.3382 45.0099 26.9292 44.8076 27.4058 44.424L26.977 43.8066C26.6323 44.0811 26.2114 44.2355 25.7755 44.2473C25.2183 44.2473 24.6175 43.8949 24.5326 43.1455H27.5788V42.7931C27.5788 41.4698 26.8061 40.5884 25.6481 40.5884V40.5873ZM25.6057 41.3814C26.2064 41.3814 26.6352 41.7786 26.6777 42.4397H24.4476C24.5761 41.8222 24.9656 41.3814 25.6057 41.3814ZM14.4949 42.7921V40.6757H13.6798V41.2079C13.3794 40.8109 12.9547 40.5905 12.3499 40.5905C11.1919 40.5905 10.3332 41.5166 10.3332 42.7953C10.3332 44.0738 11.1909 45 12.3499 45C12.9506 45 13.3794 44.7795 13.6798 44.3825V44.9148H14.4949V42.7921ZM11.1919 42.7921C11.1919 41.9978 11.6642 41.3814 12.4794 41.3814C13.252 41.3814 13.7223 41.999 13.7223 42.7921C13.7223 43.6299 13.2044 44.2026 12.4794 44.2026C11.6642 44.2462 11.1919 43.5852 11.1919 42.7921ZM42.8947 40.5873C42.6727 40.5822 42.4532 40.6364 42.2576 40.7447C42.0621 40.8529 41.8972 41.0114 41.7792 41.2047V40.6725H40.964V44.9052H41.7781V42.528C41.7781 41.8222 42.1209 41.3814 42.6793 41.3814C42.8676 41.3894 43.0546 41.4189 43.2365 41.4698L43.4944 40.6757C43.2977 40.6247 43.0974 40.5951 42.8947 40.5873ZM39.72 42.7921V40.6757H38.9049V41.2079C38.6046 40.8109 38.1799 40.5905 37.5749 40.5905C36.417 40.5905 35.5584 41.5166 35.5584 42.7953C35.5584 44.0738 36.416 45 37.5749 45C38.1758 45 38.6046 44.7795 38.9049 44.3825V44.9148H39.72V42.7921ZM36.417 42.7921C36.417 41.9978 36.8892 41.3814 37.7045 41.3814C38.4771 41.3814 38.9474 41.999 38.9474 42.7921C38.9474 43.6299 38.4294 44.2026 37.7045 44.2026C36.8892 44.2462 36.417 43.5852 36.417 42.7921ZM48 42.7921V39H47.1849V41.2047C46.8844 40.8077 46.4598 40.5873 45.8549 40.5873C44.6969 40.5873 43.8382 41.5135 43.8382 42.7921C43.8382 44.0706 44.6958 44.9967 45.8549 44.9967C46.4556 44.9967 46.8844 44.7763 47.1849 44.3793V44.9115H48V42.7921ZM44.6969 42.7921C44.6969 41.9978 45.1692 41.3814 45.9843 41.3814C46.7571 41.3814 47.2273 41.999 47.2273 42.7921C47.2273 43.6299 46.7094 44.2026 45.9843 44.2026C45.1682 44.2473 44.6958 43.5862 44.6958 42.7921H44.6969Z" fill="white"/>
<path d="M33 9H18V33H33V9Z" fill="#FF5F00"/>
<path d="M19.1203 21.5C19.1208 19.1557 19.65 16.8418 20.6682 14.7316C21.6864 12.6215 23.1673 10.7698 25 9.31519C22.7208 7.51749 19.9834 6.39937 17.1008 6.08869C14.2181 5.77801 11.3064 6.28727 8.69872 7.55829C6.09094 8.8293 3.89226 10.8108 2.35401 13.2762C0.815752 15.7415 0 18.5915 0 21.5C0 24.4085 0.815752 27.2585 2.35401 29.7238C3.89226 32.1892 6.09094 34.1707 8.69872 35.4417C11.3064 36.7128 14.2181 37.222 17.1008 36.9113C19.9834 36.6006 22.7208 35.4825 25 33.6848C23.1673 32.2302 21.6864 30.3785 20.6682 28.2684C19.65 26.1582 19.1208 23.8443 19.1203 21.5Z" fill="#EB001B"/>
<path d="M50 21.5C50.0021 24.4072 49.1879 27.2564 47.6505 29.7216C46.1132 32.1868 43.9148 34.1685 41.3066 35.44C38.6985 36.7116 35.7861 37.2216 32.9023 36.9118C30.0186 36.602 27.2801 35.4849 25 33.6882C26.835 32.2336 28.3178 30.3815 29.3372 28.2707C30.3566 26.1598 30.8861 23.8452 30.8861 21.5C30.8861 19.1549 30.3566 16.8401 29.3372 14.7294C28.3178 12.6185 26.835 10.7664 25 9.31176C27.2801 7.51509 30.0186 6.39799 32.9023 6.08819C35.7861 5.7784 38.6985 6.28845 41.3066 7.55998C43.9148 8.83151 46.1132 10.8132 47.6505 13.2784C49.1879 15.7436 50.0021 18.5927 50 21.5Z" fill="#F79E1B"/>
</g>
</g>
<defs>
<clipPath id="clip0_435_396">
<rect width="50" height="50" fill="white"/>
</clipPath>
</defs>
</svg>
