<svg width="360" height="1103" viewBox="0 0 360 1103" fill="none" xmlns="http://www.w3.org/2000/svg">
<g clip-path="url(#clip0_616_43)">
<rect width="360" height="1103" fill="#E2E2E2"/>
<g clip-path="url(#clip1_616_43)">
<path d="M842.486 150.628C821.822 88.1112 757.64 39.5334 674.807 24.0763C625.07 14.6921 574.602 10 524.5 10C474.398 10 423.93 14.6921 374.193 24.0763C291.36 39.6714 226.995 88.1112 206.514 150.629C181.829 225.842 181.829 302.16 206.514 377.373C227.177 439.89 291.36 488.467 374.193 503.924C423.93 513.308 474.398 518 524.5 518C574.602 518 625.07 513.308 674.807 503.923C757.64 488.329 822.006 439.889 842.486 377.372C867.171 302.159 867.171 225.841 842.486 150.628Z" stroke="white"/>
</g>
<path d="M796.823 250.125C782.116 202.831 736.435 166.082 677.479 154.388C642.08 147.289 606.16 143.74 570.5 143.74C534.84 143.74 498.92 147.289 463.521 154.388C404.565 166.186 358.754 202.831 344.177 250.126C326.608 307.025 326.608 364.759 344.177 421.658C358.883 468.953 404.565 505.702 463.521 517.395C498.92 524.494 534.84 528.043 570.5 528.043C606.16 528.043 642.08 524.494 677.479 517.394C736.435 505.597 782.247 468.952 796.823 421.658C814.392 364.759 814.392 307.024 796.823 250.125Z" stroke="white"/>
</g>
<defs>
<clipPath id="clip0_616_43">
<rect width="360" height="1103" fill="white"/>
</clipPath>
<clipPath id="clip1_616_43">
<rect width="612" height="592.926" fill="white" transform="translate(150)"/>
</clipPath>
</defs>
</svg>
