<svg width="1280" height="367" viewBox="0 0 1280 367" fill="none" xmlns="http://www.w3.org/2000/svg">
<mask id="mask0_360_633" style="mask-type:alpha" maskUnits="userSpaceOnUse" x="0" y="-2" width="1280" height="369">
<rect y="-2" width="1280" height="369" fill="#F5F5F7"/>
</mask>
<g mask="url(#mask0_360_633)">
<rect y="-2" width="1280" height="369" fill="#E2E2E2"/>
</g>
<g clip-path="url(#clip0_360_633)">
<path d="M1482.27 200.519C1461.36 116.712 1396.41 51.591 1312.59 30.87C1262.27 18.29 1211.2 12 1160.5 12C1109.8 12 1058.73 18.29 1008.41 30.87C924.588 51.776 859.458 116.712 838.734 200.52C813.755 301.347 813.755 403.655 838.734 504.482C859.642 588.289 924.588 653.41 1008.41 674.13C1058.73 686.71 1109.8 693 1160.5 693C1211.2 693 1262.27 686.71 1312.59 674.129C1396.41 653.224 1461.54 588.288 1482.27 504.481C1507.25 403.654 1507.25 301.346 1482.27 200.519Z" stroke="#111219"/>
</g>
<g clip-path="url(#clip1_360_633)">
<path d="M1602.27 285.519C1581.36 201.712 1516.41 136.591 1432.59 115.87C1382.27 103.29 1331.2 97 1280.5 97C1229.8 97 1178.73 103.29 1128.41 115.87C1044.59 136.776 979.458 201.712 958.734 285.52C933.755 386.347 933.755 488.655 958.734 589.482C979.642 673.289 1044.59 738.41 1128.41 759.13C1178.73 771.71 1229.8 778 1280.5 778C1331.2 778 1382.27 771.71 1432.59 759.129C1516.41 738.224 1581.54 673.288 1602.27 589.481C1627.24 488.654 1627.24 386.346 1602.27 285.519Z" stroke="#111219"/>
</g>
<defs>
<clipPath id="clip0_360_633">
<rect width="681" height="681" fill="white" transform="translate(747 2)"/>
</clipPath>
<clipPath id="clip1_360_633">
<rect width="681" height="681" fill="white" transform="translate(940 97)"/>
</clipPath>
</defs>
</svg>
