<svg width="50" height="50" viewBox="0 0 50 50" fill="none" xmlns="http://www.w3.org/2000/svg">
<path d="M22.2074 31.7666H18.7803L20.9221 18.2417H24.3497L22.2074 31.7666ZM15.8971 18.2417L12.6299 27.5443L12.2433 25.541L11.0905 19.4594C11.0905 19.4594 10.9511 18.2417 9.46478 18.2417H4.06338L4 18.4707C4 18.4707 5.65176 18.8238 7.58486 20.0166L10.5623 31.767H14.1331L19.5856 18.2417H15.8971ZM42.8532 31.7666H46L43.2563 18.2413H40.5014C39.2292 18.2413 38.9194 19.2492 38.9194 19.2492L33.8081 31.7666H37.3806L38.0951 29.7577H42.4517L42.8532 31.7666ZM39.082 26.9824L40.8827 21.921L41.8958 26.9824H39.082ZM34.0761 21.4941L34.5651 18.5897C34.5651 18.5897 33.056 18 31.4828 18C29.782 18 25.7433 18.7637 25.7433 22.4775C25.7433 25.9715 30.4834 26.015 30.4834 27.8503C30.4834 29.6857 26.2317 29.3568 24.8285 28.1994L24.319 31.2363C24.319 31.2363 25.8493 32 28.1873 32C30.5261 32 34.0542 30.7558 34.0542 27.3695C34.0542 23.853 29.2714 23.5255 29.2714 21.9966C29.2718 20.4674 32.6095 20.6638 34.0761 21.4941Z" fill="white"/>
<path d="M12 25L10.881 19.1677C10.881 19.1677 10.7456 18 9.30326 18H4.06151L4 18.2196C4 18.2196 6.5194 18.7496 8.93593 20.7358C11.2465 22.6341 12 25 12 25Z" fill="#FDB02C"/>
</svg>
